<mxfile host="app.diagrams.net" modified="2022-09-28T08:02:23.827Z" agent="5.0 (Windows NT 10.0; Win64; x64) AppleWebKit/537.36 (KHTML, like Gecko) Chrome/105.0.0.0 Safari/537.36" etag="Z9cXFFAe-ro0wWu5AgGo" version="20.3.6" type="github">
  <diagram id="Vx9HXW5g3HGvuvdVBc7g" name="Page-1">
    <mxGraphModel dx="1298" dy="695" grid="1" gridSize="10" guides="1" tooltips="1" connect="1" arrows="1" fold="1" page="1" pageScale="1" pageWidth="700000" pageHeight="700000" math="0" shadow="0">
      <root>
        <mxCell id="0" />
        <mxCell id="1" parent="0" />
        <mxCell id="eyDwSRysMj3kFaCQzoZv-309" value="" style="rounded=0;whiteSpace=wrap;html=1;" parent="1" vertex="1">
          <mxGeometry x="4520" y="3480" width="510" height="480" as="geometry" />
        </mxCell>
        <mxCell id="eyDwSRysMj3kFaCQzoZv-386" style="edgeStyle=orthogonalEdgeStyle;rounded=0;orthogonalLoop=1;jettySize=auto;html=1;exitX=0.005;exitY=0.63;exitDx=0;exitDy=0;exitPerimeter=0;entryX=0.995;entryY=0.63;entryDx=0;entryDy=0;entryPerimeter=0;" parent="1" source="eyDwSRysMj3kFaCQzoZv-321" target="eyDwSRysMj3kFaCQzoZv-322" edge="1">
          <mxGeometry relative="1" as="geometry">
            <Array as="points">
              <mxPoint x="4970" y="3727" />
              <mxPoint x="4970" y="3520" />
            </Array>
          </mxGeometry>
        </mxCell>
        <mxCell id="eyDwSRysMj3kFaCQzoZv-387" style="edgeStyle=orthogonalEdgeStyle;rounded=0;orthogonalLoop=1;jettySize=auto;html=1;exitX=0.005;exitY=0.63;exitDx=0;exitDy=0;exitPerimeter=0;entryX=0.995;entryY=0.63;entryDx=0;entryDy=0;entryPerimeter=0;" parent="1" source="eyDwSRysMj3kFaCQzoZv-321" target="eyDwSRysMj3kFaCQzoZv-347" edge="1">
          <mxGeometry relative="1" as="geometry">
            <Array as="points">
              <mxPoint x="4970" y="3727" />
              <mxPoint x="4970" y="3608" />
            </Array>
          </mxGeometry>
        </mxCell>
        <mxCell id="eyDwSRysMj3kFaCQzoZv-388" style="edgeStyle=orthogonalEdgeStyle;rounded=0;orthogonalLoop=1;jettySize=auto;html=1;exitX=0.005;exitY=0.63;exitDx=0;exitDy=0;exitPerimeter=0;entryX=0.995;entryY=0.63;entryDx=0;entryDy=0;entryPerimeter=0;" parent="1" source="eyDwSRysMj3kFaCQzoZv-321" target="eyDwSRysMj3kFaCQzoZv-343" edge="1">
          <mxGeometry relative="1" as="geometry">
            <Array as="points">
              <mxPoint x="4970" y="3727" />
              <mxPoint x="4970" y="3696" />
            </Array>
          </mxGeometry>
        </mxCell>
        <mxCell id="eyDwSRysMj3kFaCQzoZv-389" style="edgeStyle=orthogonalEdgeStyle;rounded=0;orthogonalLoop=1;jettySize=auto;html=1;exitX=0.005;exitY=0.63;exitDx=0;exitDy=0;exitPerimeter=0;entryX=0.995;entryY=0.63;entryDx=0;entryDy=0;entryPerimeter=0;" parent="1" source="eyDwSRysMj3kFaCQzoZv-321" target="eyDwSRysMj3kFaCQzoZv-352" edge="1">
          <mxGeometry relative="1" as="geometry">
            <Array as="points">
              <mxPoint x="4970" y="3727" />
              <mxPoint x="4970" y="3784" />
            </Array>
          </mxGeometry>
        </mxCell>
        <mxCell id="eyDwSRysMj3kFaCQzoZv-390" style="edgeStyle=orthogonalEdgeStyle;rounded=0;orthogonalLoop=1;jettySize=auto;html=1;exitX=0.005;exitY=0.63;exitDx=0;exitDy=0;exitPerimeter=0;entryX=0.995;entryY=0.63;entryDx=0;entryDy=0;entryPerimeter=0;" parent="1" source="eyDwSRysMj3kFaCQzoZv-321" target="eyDwSRysMj3kFaCQzoZv-374" edge="1">
          <mxGeometry relative="1" as="geometry">
            <Array as="points">
              <mxPoint x="4970" y="3727" />
              <mxPoint x="4970" y="3872" />
            </Array>
          </mxGeometry>
        </mxCell>
        <mxCell id="eyDwSRysMj3kFaCQzoZv-321" value="" style="sketch=0;html=1;dashed=0;whitespace=wrap;fillColor=#2875E2;strokeColor=#ffffff;points=[[0.005,0.63,0],[0.1,0.2,0],[0.9,0.2,0],[0.5,0,0],[0.995,0.63,0],[0.72,0.99,0],[0.5,1,0],[0.28,0.99,0]];shape=mxgraph.kubernetes.icon;prIcon=ing" parent="1" vertex="1">
          <mxGeometry x="5010" y="3696" width="50" height="48" as="geometry" />
        </mxCell>
        <mxCell id="eyDwSRysMj3kFaCQzoZv-322" value="" style="sketch=0;html=1;dashed=0;whitespace=wrap;fillColor=#2875E2;strokeColor=#ffffff;points=[[0.005,0.63,0],[0.1,0.2,0],[0.9,0.2,0],[0.5,0,0],[0.995,0.63,0],[0.72,0.99,0],[0.5,1,0],[0.28,0.99,0]];shape=mxgraph.kubernetes.icon;prIcon=svc" parent="1" vertex="1">
          <mxGeometry x="4870" y="3490" width="50" height="48" as="geometry" />
        </mxCell>
        <mxCell id="eyDwSRysMj3kFaCQzoZv-323" value="" style="sketch=0;aspect=fixed;html=1;points=[];align=center;image;fontSize=12;image=img/lib/mscae/Kubernetes.svg;" parent="1" vertex="1">
          <mxGeometry x="4530" y="3490" width="50" height="48" as="geometry" />
        </mxCell>
        <mxCell id="eyDwSRysMj3kFaCQzoZv-375" style="edgeStyle=orthogonalEdgeStyle;rounded=0;orthogonalLoop=1;jettySize=auto;html=1;exitX=0.005;exitY=0.63;exitDx=0;exitDy=0;exitPerimeter=0;entryX=0.995;entryY=0.63;entryDx=0;entryDy=0;entryPerimeter=0;" parent="1" source="eyDwSRysMj3kFaCQzoZv-322" target="eyDwSRysMj3kFaCQzoZv-331" edge="1">
          <mxGeometry relative="1" as="geometry" />
        </mxCell>
        <mxCell id="eyDwSRysMj3kFaCQzoZv-331" value="" style="sketch=0;html=1;dashed=0;whitespace=wrap;fillColor=#2875E2;strokeColor=#ffffff;points=[[0.005,0.63,0],[0.1,0.2,0],[0.9,0.2,0],[0.5,0,0],[0.995,0.63,0],[0.72,0.99,0],[0.5,1,0],[0.28,0.99,0]];shape=mxgraph.kubernetes.icon;prIcon=pod" parent="1" vertex="1">
          <mxGeometry x="4747" y="3490" width="50" height="48" as="geometry" />
        </mxCell>
        <mxCell id="eyDwSRysMj3kFaCQzoZv-376" style="edgeStyle=orthogonalEdgeStyle;rounded=0;orthogonalLoop=1;jettySize=auto;html=1;exitX=0.005;exitY=0.63;exitDx=0;exitDy=0;exitPerimeter=0;entryX=0.995;entryY=0.63;entryDx=0;entryDy=0;entryPerimeter=0;" parent="1" source="eyDwSRysMj3kFaCQzoZv-322" target="eyDwSRysMj3kFaCQzoZv-332" edge="1">
          <mxGeometry relative="1" as="geometry" />
        </mxCell>
        <mxCell id="eyDwSRysMj3kFaCQzoZv-332" value="" style="sketch=0;html=1;dashed=0;whitespace=wrap;fillColor=#2875E2;strokeColor=#ffffff;points=[[0.005,0.63,0],[0.1,0.2,0],[0.9,0.2,0],[0.5,0,0],[0.995,0.63,0],[0.72,0.99,0],[0.5,1,0],[0.28,0.99,0]];shape=mxgraph.kubernetes.icon;prIcon=pod" parent="1" vertex="1">
          <mxGeometry x="4747" y="3578" width="50" height="48" as="geometry" />
        </mxCell>
        <mxCell id="eyDwSRysMj3kFaCQzoZv-379" style="edgeStyle=orthogonalEdgeStyle;rounded=0;orthogonalLoop=1;jettySize=auto;html=1;exitX=0.005;exitY=0.63;exitDx=0;exitDy=0;exitPerimeter=0;entryX=0.995;entryY=0.63;entryDx=0;entryDy=0;entryPerimeter=0;" parent="1" source="eyDwSRysMj3kFaCQzoZv-343" target="eyDwSRysMj3kFaCQzoZv-333" edge="1">
          <mxGeometry relative="1" as="geometry" />
        </mxCell>
        <mxCell id="eyDwSRysMj3kFaCQzoZv-333" value="" style="sketch=0;html=1;dashed=0;whitespace=wrap;fillColor=#2875E2;strokeColor=#ffffff;points=[[0.005,0.63,0],[0.1,0.2,0],[0.9,0.2,0],[0.5,0,0],[0.995,0.63,0],[0.72,0.99,0],[0.5,1,0],[0.28,0.99,0]];shape=mxgraph.kubernetes.icon;prIcon=pod" parent="1" vertex="1">
          <mxGeometry x="4747" y="3666" width="50" height="48" as="geometry" />
        </mxCell>
        <mxCell id="eyDwSRysMj3kFaCQzoZv-380" style="edgeStyle=orthogonalEdgeStyle;rounded=0;orthogonalLoop=1;jettySize=auto;html=1;exitX=0.005;exitY=0.63;exitDx=0;exitDy=0;exitPerimeter=0;entryX=0.995;entryY=0.63;entryDx=0;entryDy=0;entryPerimeter=0;" parent="1" source="eyDwSRysMj3kFaCQzoZv-343" target="eyDwSRysMj3kFaCQzoZv-334" edge="1">
          <mxGeometry relative="1" as="geometry" />
        </mxCell>
        <mxCell id="eyDwSRysMj3kFaCQzoZv-334" value="" style="sketch=0;html=1;dashed=0;whitespace=wrap;fillColor=#2875E2;strokeColor=#ffffff;points=[[0.005,0.63,0],[0.1,0.2,0],[0.9,0.2,0],[0.5,0,0],[0.995,0.63,0],[0.72,0.99,0],[0.5,1,0],[0.28,0.99,0]];shape=mxgraph.kubernetes.icon;prIcon=pod" parent="1" vertex="1">
          <mxGeometry x="4747" y="3754" width="50" height="48" as="geometry" />
        </mxCell>
        <mxCell id="eyDwSRysMj3kFaCQzoZv-391" style="edgeStyle=orthogonalEdgeStyle;rounded=0;orthogonalLoop=1;jettySize=auto;html=1;exitX=0.005;exitY=0.63;exitDx=0;exitDy=0;exitPerimeter=0;entryX=0.5;entryY=1;entryDx=0;entryDy=0;entryPerimeter=0;" parent="1" source="eyDwSRysMj3kFaCQzoZv-337" target="eyDwSRysMj3kFaCQzoZv-373" edge="1">
          <mxGeometry relative="1" as="geometry" />
        </mxCell>
        <mxCell id="eyDwSRysMj3kFaCQzoZv-392" style="edgeStyle=orthogonalEdgeStyle;rounded=0;orthogonalLoop=1;jettySize=auto;html=1;entryX=0.5;entryY=1;entryDx=0;entryDy=0;entryPerimeter=0;" parent="1" source="eyDwSRysMj3kFaCQzoZv-337" target="eyDwSRysMj3kFaCQzoZv-327" edge="1">
          <mxGeometry relative="1" as="geometry">
            <Array as="points">
              <mxPoint x="4655" y="3930" />
            </Array>
          </mxGeometry>
        </mxCell>
        <mxCell id="eyDwSRysMj3kFaCQzoZv-393" style="edgeStyle=orthogonalEdgeStyle;rounded=0;orthogonalLoop=1;jettySize=auto;html=1;exitX=0.005;exitY=0.63;exitDx=0;exitDy=0;exitPerimeter=0;entryX=0.5;entryY=1;entryDx=0;entryDy=0;entryPerimeter=0;" parent="1" source="eyDwSRysMj3kFaCQzoZv-337" target="eyDwSRysMj3kFaCQzoZv-326" edge="1">
          <mxGeometry relative="1" as="geometry">
            <Array as="points">
              <mxPoint x="4720" y="3930" />
              <mxPoint x="4720" y="3830" />
              <mxPoint x="4655" y="3830" />
            </Array>
          </mxGeometry>
        </mxCell>
        <mxCell id="eyDwSRysMj3kFaCQzoZv-394" style="edgeStyle=orthogonalEdgeStyle;rounded=0;orthogonalLoop=1;jettySize=auto;html=1;exitX=0.005;exitY=0.63;exitDx=0;exitDy=0;exitPerimeter=0;entryX=0.5;entryY=1;entryDx=0;entryDy=0;entryPerimeter=0;" parent="1" source="eyDwSRysMj3kFaCQzoZv-337" target="eyDwSRysMj3kFaCQzoZv-334" edge="1">
          <mxGeometry relative="1" as="geometry">
            <Array as="points">
              <mxPoint x="4720" y="3930" />
              <mxPoint x="4720" y="3830" />
              <mxPoint x="4772" y="3830" />
            </Array>
          </mxGeometry>
        </mxCell>
        <mxCell id="eyDwSRysMj3kFaCQzoZv-395" style="edgeStyle=orthogonalEdgeStyle;rounded=0;orthogonalLoop=1;jettySize=auto;html=1;exitX=0.005;exitY=0.63;exitDx=0;exitDy=0;exitPerimeter=0;entryX=0.5;entryY=1;entryDx=0;entryDy=0;entryPerimeter=0;" parent="1" source="eyDwSRysMj3kFaCQzoZv-337" target="eyDwSRysMj3kFaCQzoZv-325" edge="1">
          <mxGeometry relative="1" as="geometry">
            <Array as="points">
              <mxPoint x="4720" y="3930" />
              <mxPoint x="4720" y="3730" />
              <mxPoint x="4655" y="3730" />
            </Array>
          </mxGeometry>
        </mxCell>
        <mxCell id="eyDwSRysMj3kFaCQzoZv-396" style="edgeStyle=orthogonalEdgeStyle;rounded=0;orthogonalLoop=1;jettySize=auto;html=1;exitX=0.005;exitY=0.63;exitDx=0;exitDy=0;exitPerimeter=0;entryX=0.5;entryY=1;entryDx=0;entryDy=0;entryPerimeter=0;" parent="1" source="eyDwSRysMj3kFaCQzoZv-337" target="eyDwSRysMj3kFaCQzoZv-333" edge="1">
          <mxGeometry relative="1" as="geometry">
            <Array as="points">
              <mxPoint x="4720" y="3930" />
              <mxPoint x="4720" y="3730" />
              <mxPoint x="4772" y="3730" />
            </Array>
          </mxGeometry>
        </mxCell>
        <mxCell id="eyDwSRysMj3kFaCQzoZv-397" style="edgeStyle=orthogonalEdgeStyle;rounded=0;orthogonalLoop=1;jettySize=auto;html=1;exitX=0.005;exitY=0.63;exitDx=0;exitDy=0;exitPerimeter=0;entryX=0.5;entryY=1;entryDx=0;entryDy=0;entryPerimeter=0;" parent="1" source="eyDwSRysMj3kFaCQzoZv-337" target="eyDwSRysMj3kFaCQzoZv-324" edge="1">
          <mxGeometry relative="1" as="geometry">
            <Array as="points">
              <mxPoint x="4720" y="3930" />
              <mxPoint x="4720" y="3640" />
              <mxPoint x="4655" y="3640" />
            </Array>
          </mxGeometry>
        </mxCell>
        <mxCell id="eyDwSRysMj3kFaCQzoZv-398" style="edgeStyle=orthogonalEdgeStyle;rounded=0;orthogonalLoop=1;jettySize=auto;html=1;exitX=0.005;exitY=0.63;exitDx=0;exitDy=0;exitPerimeter=0;entryX=0.5;entryY=1;entryDx=0;entryDy=0;entryPerimeter=0;" parent="1" source="eyDwSRysMj3kFaCQzoZv-337" target="eyDwSRysMj3kFaCQzoZv-332" edge="1">
          <mxGeometry relative="1" as="geometry">
            <Array as="points">
              <mxPoint x="4720" y="3930" />
              <mxPoint x="4720" y="3640" />
              <mxPoint x="4772" y="3640" />
            </Array>
          </mxGeometry>
        </mxCell>
        <mxCell id="eyDwSRysMj3kFaCQzoZv-399" style="edgeStyle=orthogonalEdgeStyle;rounded=0;orthogonalLoop=1;jettySize=auto;html=1;exitX=0.005;exitY=0.63;exitDx=0;exitDy=0;exitPerimeter=0;entryX=0.5;entryY=1;entryDx=0;entryDy=0;entryPerimeter=0;" parent="1" source="eyDwSRysMj3kFaCQzoZv-337" target="eyDwSRysMj3kFaCQzoZv-320" edge="1">
          <mxGeometry relative="1" as="geometry">
            <Array as="points">
              <mxPoint x="4720" y="3930" />
              <mxPoint x="4720" y="3550" />
              <mxPoint x="4655" y="3550" />
            </Array>
          </mxGeometry>
        </mxCell>
        <mxCell id="eyDwSRysMj3kFaCQzoZv-400" style="edgeStyle=orthogonalEdgeStyle;rounded=0;orthogonalLoop=1;jettySize=auto;html=1;exitX=0.005;exitY=0.63;exitDx=0;exitDy=0;exitPerimeter=0;entryX=0.5;entryY=1;entryDx=0;entryDy=0;entryPerimeter=0;" parent="1" source="eyDwSRysMj3kFaCQzoZv-337" target="eyDwSRysMj3kFaCQzoZv-331" edge="1">
          <mxGeometry relative="1" as="geometry">
            <Array as="points">
              <mxPoint x="4720" y="3930" />
              <mxPoint x="4720" y="3550" />
              <mxPoint x="4772" y="3550" />
            </Array>
          </mxGeometry>
        </mxCell>
        <mxCell id="DYVR5GmqD2k4Z60yoU10-2" style="edgeStyle=orthogonalEdgeStyle;rounded=0;orthogonalLoop=1;jettySize=auto;html=1;exitX=0.995;exitY=0.63;exitDx=0;exitDy=0;exitPerimeter=0;" edge="1" parent="1" source="eyDwSRysMj3kFaCQzoZv-337" target="eyDwSRysMj3kFaCQzoZv-402">
          <mxGeometry relative="1" as="geometry" />
        </mxCell>
        <mxCell id="eyDwSRysMj3kFaCQzoZv-337" value="" style="sketch=0;html=1;dashed=0;whitespace=wrap;fillColor=#2875E2;strokeColor=#ffffff;points=[[0.005,0.63,0],[0.1,0.2,0],[0.9,0.2,0],[0.5,0,0],[0.995,0.63,0],[0.72,0.99,0],[0.5,1,0],[0.28,0.99,0]];shape=mxgraph.kubernetes.icon;prIcon=ds" parent="1" vertex="1">
          <mxGeometry x="4940" y="3900" width="50" height="48" as="geometry" />
        </mxCell>
        <mxCell id="eyDwSRysMj3kFaCQzoZv-377" style="edgeStyle=orthogonalEdgeStyle;rounded=0;orthogonalLoop=1;jettySize=auto;html=1;exitX=0.005;exitY=0.63;exitDx=0;exitDy=0;exitPerimeter=0;entryX=0.995;entryY=0.63;entryDx=0;entryDy=0;entryPerimeter=0;" parent="1" source="eyDwSRysMj3kFaCQzoZv-347" target="eyDwSRysMj3kFaCQzoZv-320" edge="1">
          <mxGeometry relative="1" as="geometry">
            <Array as="points">
              <mxPoint x="4860" y="3608" />
              <mxPoint x="4860" y="3570" />
              <mxPoint x="4700" y="3570" />
              <mxPoint x="4700" y="3520" />
            </Array>
          </mxGeometry>
        </mxCell>
        <mxCell id="eyDwSRysMj3kFaCQzoZv-320" value="" style="sketch=0;html=1;dashed=0;whitespace=wrap;fillColor=#2875E2;strokeColor=#ffffff;points=[[0.005,0.63,0],[0.1,0.2,0],[0.9,0.2,0],[0.5,0,0],[0.995,0.63,0],[0.72,0.99,0],[0.5,1,0],[0.28,0.99,0]];shape=mxgraph.kubernetes.icon;prIcon=pod;flipV=0;" parent="1" vertex="1">
          <mxGeometry x="4630" y="3490" width="50" height="48" as="geometry" />
        </mxCell>
        <mxCell id="eyDwSRysMj3kFaCQzoZv-378" style="edgeStyle=orthogonalEdgeStyle;rounded=0;orthogonalLoop=1;jettySize=auto;html=1;exitX=0.005;exitY=0.63;exitDx=0;exitDy=0;exitPerimeter=0;entryX=0.995;entryY=0.63;entryDx=0;entryDy=0;entryPerimeter=0;" parent="1" source="eyDwSRysMj3kFaCQzoZv-347" target="eyDwSRysMj3kFaCQzoZv-324" edge="1">
          <mxGeometry relative="1" as="geometry">
            <Array as="points">
              <mxPoint x="4860" y="3608" />
              <mxPoint x="4860" y="3660" />
              <mxPoint x="4700" y="3660" />
              <mxPoint x="4700" y="3608" />
            </Array>
          </mxGeometry>
        </mxCell>
        <mxCell id="eyDwSRysMj3kFaCQzoZv-324" value="" style="sketch=0;html=1;dashed=0;whitespace=wrap;fillColor=#2875E2;strokeColor=#ffffff;points=[[0.005,0.63,0],[0.1,0.2,0],[0.9,0.2,0],[0.5,0,0],[0.995,0.63,0],[0.72,0.99,0],[0.5,1,0],[0.28,0.99,0]];shape=mxgraph.kubernetes.icon;prIcon=pod;flipV=0;" parent="1" vertex="1">
          <mxGeometry x="4630" y="3578" width="50" height="48" as="geometry" />
        </mxCell>
        <mxCell id="eyDwSRysMj3kFaCQzoZv-381" style="edgeStyle=orthogonalEdgeStyle;rounded=0;orthogonalLoop=1;jettySize=auto;html=1;exitX=0.005;exitY=0.63;exitDx=0;exitDy=0;exitPerimeter=0;entryX=0.995;entryY=0.63;entryDx=0;entryDy=0;entryPerimeter=0;" parent="1" source="eyDwSRysMj3kFaCQzoZv-352" target="eyDwSRysMj3kFaCQzoZv-325" edge="1">
          <mxGeometry relative="1" as="geometry">
            <Array as="points">
              <mxPoint x="4860" y="3784" />
              <mxPoint x="4860" y="3750" />
              <mxPoint x="4700" y="3750" />
              <mxPoint x="4700" y="3696" />
            </Array>
          </mxGeometry>
        </mxCell>
        <mxCell id="eyDwSRysMj3kFaCQzoZv-325" value="" style="sketch=0;html=1;dashed=0;whitespace=wrap;fillColor=#2875E2;strokeColor=#ffffff;points=[[0.005,0.63,0],[0.1,0.2,0],[0.9,0.2,0],[0.5,0,0],[0.995,0.63,0],[0.72,0.99,0],[0.5,1,0],[0.28,0.99,0]];shape=mxgraph.kubernetes.icon;prIcon=pod;flipV=0;" parent="1" vertex="1">
          <mxGeometry x="4630" y="3666" width="50" height="48" as="geometry" />
        </mxCell>
        <mxCell id="eyDwSRysMj3kFaCQzoZv-382" style="edgeStyle=orthogonalEdgeStyle;rounded=0;orthogonalLoop=1;jettySize=auto;html=1;exitX=0.005;exitY=0.63;exitDx=0;exitDy=0;exitPerimeter=0;entryX=0.995;entryY=0.63;entryDx=0;entryDy=0;entryPerimeter=0;" parent="1" source="eyDwSRysMj3kFaCQzoZv-352" target="eyDwSRysMj3kFaCQzoZv-326" edge="1">
          <mxGeometry relative="1" as="geometry">
            <Array as="points">
              <mxPoint x="4860" y="3784" />
              <mxPoint x="4860" y="3820" />
              <mxPoint x="4700" y="3820" />
              <mxPoint x="4700" y="3784" />
            </Array>
          </mxGeometry>
        </mxCell>
        <mxCell id="eyDwSRysMj3kFaCQzoZv-326" value="" style="sketch=0;html=1;dashed=0;whitespace=wrap;fillColor=#2875E2;strokeColor=#ffffff;points=[[0.005,0.63,0],[0.1,0.2,0],[0.9,0.2,0],[0.5,0,0],[0.995,0.63,0],[0.72,0.99,0],[0.5,1,0],[0.28,0.99,0]];shape=mxgraph.kubernetes.icon;prIcon=pod;flipV=0;" parent="1" vertex="1">
          <mxGeometry x="4630" y="3754" width="50" height="48" as="geometry" />
        </mxCell>
        <mxCell id="eyDwSRysMj3kFaCQzoZv-384" style="edgeStyle=orthogonalEdgeStyle;rounded=0;orthogonalLoop=1;jettySize=auto;html=1;exitX=0.005;exitY=0.63;exitDx=0;exitDy=0;exitPerimeter=0;entryX=0.995;entryY=0.63;entryDx=0;entryDy=0;entryPerimeter=0;" parent="1" source="eyDwSRysMj3kFaCQzoZv-374" target="eyDwSRysMj3kFaCQzoZv-327" edge="1">
          <mxGeometry relative="1" as="geometry">
            <Array as="points">
              <mxPoint x="4860" y="3872" />
              <mxPoint x="4860" y="3910" />
              <mxPoint x="4700" y="3910" />
              <mxPoint x="4700" y="3872" />
            </Array>
          </mxGeometry>
        </mxCell>
        <mxCell id="eyDwSRysMj3kFaCQzoZv-327" value="" style="sketch=0;html=1;dashed=0;whitespace=wrap;fillColor=#2875E2;strokeColor=#ffffff;points=[[0.005,0.63,0],[0.1,0.2,0],[0.9,0.2,0],[0.5,0,0],[0.995,0.63,0],[0.72,0.99,0],[0.5,1,0],[0.28,0.99,0]];shape=mxgraph.kubernetes.icon;prIcon=pod;flipV=0;" parent="1" vertex="1">
          <mxGeometry x="4630" y="3842" width="50" height="48" as="geometry" />
        </mxCell>
        <mxCell id="eyDwSRysMj3kFaCQzoZv-343" value="" style="sketch=0;html=1;dashed=0;whitespace=wrap;fillColor=#2875E2;strokeColor=#ffffff;points=[[0.005,0.63,0],[0.1,0.2,0],[0.9,0.2,0],[0.5,0,0],[0.995,0.63,0],[0.72,0.99,0],[0.5,1,0],[0.28,0.99,0]];shape=mxgraph.kubernetes.icon;prIcon=svc" parent="1" vertex="1">
          <mxGeometry x="4870" y="3666" width="50" height="48" as="geometry" />
        </mxCell>
        <mxCell id="eyDwSRysMj3kFaCQzoZv-347" value="" style="sketch=0;html=1;dashed=0;whitespace=wrap;fillColor=#2875E2;strokeColor=#ffffff;points=[[0.005,0.63,0],[0.1,0.2,0],[0.9,0.2,0],[0.5,0,0],[0.995,0.63,0],[0.72,0.99,0],[0.5,1,0],[0.28,0.99,0]];shape=mxgraph.kubernetes.icon;prIcon=svc" parent="1" vertex="1">
          <mxGeometry x="4870" y="3578" width="50" height="48" as="geometry" />
        </mxCell>
        <mxCell id="eyDwSRysMj3kFaCQzoZv-352" value="" style="sketch=0;html=1;dashed=0;whitespace=wrap;fillColor=#2875E2;strokeColor=#ffffff;points=[[0.005,0.63,0],[0.1,0.2,0],[0.9,0.2,0],[0.5,0,0],[0.995,0.63,0],[0.72,0.99,0],[0.5,1,0],[0.28,0.99,0]];shape=mxgraph.kubernetes.icon;prIcon=svc" parent="1" vertex="1">
          <mxGeometry x="4870" y="3754" width="50" height="48" as="geometry" />
        </mxCell>
        <mxCell id="eyDwSRysMj3kFaCQzoZv-365" style="edgeStyle=orthogonalEdgeStyle;rounded=0;orthogonalLoop=1;jettySize=auto;html=1;exitX=0.5;exitY=1;exitDx=0;exitDy=0;entryX=0.995;entryY=0.63;entryDx=0;entryDy=0;entryPerimeter=0;" parent="1" source="eyDwSRysMj3kFaCQzoZv-364" target="eyDwSRysMj3kFaCQzoZv-321" edge="1">
          <mxGeometry relative="1" as="geometry" />
        </mxCell>
        <mxCell id="eyDwSRysMj3kFaCQzoZv-364" value="" style="shape=image;verticalLabelPosition=bottom;labelBackgroundColor=default;verticalAlign=top;aspect=fixed;imageAspect=0;image=data:image/png,iVBORw0KGgoAAAANSUhEUgAAACAAAAAgCAYAAABzenr0AAAACXBIWXMAAAsTAAALEwEAmpwYAAAAAXNSR0IArs4c6QAAAARnQU1BAACxjwv8YQUAAAGfSURBVHgB7VeNTcUgEP7iBB2BDXSEG+Ft8NikHaFOoCPoBNUJGifoCHUDLSkXeLQcFGxMjF9yKe/B/R8cAP84BlqoX2hcaF7oy5IZD3aOcAL0QpOnMEVm7RU/AIXVWxZsxh1WLxtvXWP/6wJDJyujCMaD2RNEB3i1Z4iRccFBXOC8MHltUIbek5NthILzvEM9OrhIqBwGDl0vrCGsVc+GmrFUdL23ToSGy3ks7C3i1d9GeBo4x8TdkVqkkd6CFOElOOfKFmANYcoAKcxzaOSdN8lV+ioIIKTxIMw9BrpuDLi33xfE8Yk0pC37Fui6AYdHElCbAgUhzSxAAmUYcE3IiOrJMcCgE5R3GfxRPZwChTQ0XDq4FVMGX+PxbMBdj3AeCEGd+Lvg3X4Pd64DYNkfe5MEITzYnv/SLogV4oRElGNHcYv821CsL2ikT9rdZqQLlId9IbsZGXAxPtnfQ4UBXGzPyPCeoeDy3FYo53pqvbFCJnSl4j0quhemKj43ChqFUDj2HghpRMW13IfGLz1MQhDWC+aA7dNsxIlPs7+Lb8+2PNMIlngFAAAAAElFTkSuQmCC;" parent="1" vertex="1">
          <mxGeometry x="5080" y="3480" width="50" height="50" as="geometry" />
        </mxCell>
        <mxCell id="eyDwSRysMj3kFaCQzoZv-367" style="edgeStyle=orthogonalEdgeStyle;rounded=0;orthogonalLoop=1;jettySize=auto;html=1;exitX=0.5;exitY=1;exitDx=0;exitDy=0;entryX=0.995;entryY=0.63;entryDx=0;entryDy=0;entryPerimeter=0;" parent="1" source="eyDwSRysMj3kFaCQzoZv-366" target="eyDwSRysMj3kFaCQzoZv-321" edge="1">
          <mxGeometry relative="1" as="geometry" />
        </mxCell>
        <mxCell id="eyDwSRysMj3kFaCQzoZv-366" value="" style="shape=image;verticalLabelPosition=bottom;labelBackgroundColor=default;verticalAlign=top;aspect=fixed;imageAspect=0;image=data:image/png,iVBORw0KGgoAAAANSUhEUgAAACAAAAAgCAYAAABzenr0AAAACXBIWXMAAAsTAAALEwEAmpwYAAAAAXNSR0IArs4c6QAAAARnQU1BAACxjwv8YQUAAAGfSURBVHgB7VeNTcUgEP7iBB2BDXSEG+Ft8NikHaFOoCPoBNUJGifoCHUDLSkXeLQcFGxMjF9yKe/B/R8cAP84BlqoX2hcaF7oy5IZD3aOcAL0QpOnMEVm7RU/AIXVWxZsxh1WLxtvXWP/6wJDJyujCMaD2RNEB3i1Z4iRccFBXOC8MHltUIbek5NthILzvEM9OrhIqBwGDl0vrCGsVc+GmrFUdL23ToSGy3ks7C3i1d9GeBo4x8TdkVqkkd6CFOElOOfKFmANYcoAKcxzaOSdN8lV+ioIIKTxIMw9BrpuDLi33xfE8Yk0pC37Fui6AYdHElCbAgUhzSxAAmUYcE3IiOrJMcCgE5R3GfxRPZwChTQ0XDq4FVMGX+PxbMBdj3AeCEGd+Lvg3X4Pd64DYNkfe5MEITzYnv/SLogV4oRElGNHcYv821CsL2ikT9rdZqQLlId9IbsZGXAxPtnfQ4UBXGzPyPCeoeDy3FYo53pqvbFCJnSl4j0quhemKj43ChqFUDj2HghpRMW13IfGLz1MQhDWC+aA7dNsxIlPs7+Lb8+2PNMIlngFAAAAAElFTkSuQmCC;" parent="1" vertex="1">
          <mxGeometry x="5157.7" y="3480" width="50" height="50" as="geometry" />
        </mxCell>
        <mxCell id="eyDwSRysMj3kFaCQzoZv-368" value="" style="shape=image;verticalLabelPosition=bottom;labelBackgroundColor=default;verticalAlign=top;aspect=fixed;imageAspect=0;image=data:image/png,iVBORw0KGgoAAAANSUhEUgAAACAAAAAgCAYAAABzenr0AAAACXBIWXMAAAsTAAALEwEAmpwYAAAAAXNSR0IArs4c6QAAAARnQU1BAACxjwv8YQUAAAGfSURBVHgB7VeNTcUgEP7iBB2BDXSEG+Ft8NikHaFOoCPoBNUJGifoCHUDLSkXeLQcFGxMjF9yKe/B/R8cAP84BlqoX2hcaF7oy5IZD3aOcAL0QpOnMEVm7RU/AIXVWxZsxh1WLxtvXWP/6wJDJyujCMaD2RNEB3i1Z4iRccFBXOC8MHltUIbek5NthILzvEM9OrhIqBwGDl0vrCGsVc+GmrFUdL23ToSGy3ks7C3i1d9GeBo4x8TdkVqkkd6CFOElOOfKFmANYcoAKcxzaOSdN8lV+ioIIKTxIMw9BrpuDLi33xfE8Yk0pC37Fui6AYdHElCbAgUhzSxAAmUYcE3IiOrJMcCgE5R3GfxRPZwChTQ0XDq4FVMGX+PxbMBdj3AeCEGd+Lvg3X4Pd64DYNkfe5MEITzYnv/SLogV4oRElGNHcYv821CsL2ikT9rdZqQLlId9IbsZGXAxPtnfQ4UBXGzPyPCeoeDy3FYo53pqvbFCJnSl4j0quhemKj43ChqFUDj2HghpRMW13IfGLz1MQhDWC+aA7dNsxIlPs7+Lb8+2PNMIlngFAAAAAElFTkSuQmCC;" parent="1" vertex="1">
          <mxGeometry x="5238.03" y="3480" width="50" height="50" as="geometry" />
        </mxCell>
        <mxCell id="eyDwSRysMj3kFaCQzoZv-369" style="edgeStyle=orthogonalEdgeStyle;rounded=0;orthogonalLoop=1;jettySize=auto;html=1;exitX=0.5;exitY=1;exitDx=0;exitDy=0;entryX=0.995;entryY=0.63;entryDx=0;entryDy=0;entryPerimeter=0;" parent="1" source="eyDwSRysMj3kFaCQzoZv-368" target="eyDwSRysMj3kFaCQzoZv-321" edge="1">
          <mxGeometry relative="1" as="geometry">
            <mxPoint x="5070.079999999999" y="3666.24" as="targetPoint" />
            <Array as="points">
              <mxPoint x="5263" y="3726" />
            </Array>
          </mxGeometry>
        </mxCell>
        <mxCell id="eyDwSRysMj3kFaCQzoZv-385" style="edgeStyle=orthogonalEdgeStyle;rounded=0;orthogonalLoop=1;jettySize=auto;html=1;exitX=0.005;exitY=0.63;exitDx=0;exitDy=0;exitPerimeter=0;" parent="1" source="eyDwSRysMj3kFaCQzoZv-374" target="eyDwSRysMj3kFaCQzoZv-373" edge="1">
          <mxGeometry relative="1" as="geometry">
            <Array as="points">
              <mxPoint x="4860" y="3872" />
              <mxPoint x="4860" y="3866" />
            </Array>
          </mxGeometry>
        </mxCell>
        <mxCell id="eyDwSRysMj3kFaCQzoZv-373" value="" style="sketch=0;html=1;dashed=0;whitespace=wrap;fillColor=#2875E2;strokeColor=#ffffff;points=[[0.005,0.63,0],[0.1,0.2,0],[0.9,0.2,0],[0.5,0,0],[0.995,0.63,0],[0.72,0.99,0],[0.5,1,0],[0.28,0.99,0]];shape=mxgraph.kubernetes.icon;prIcon=pod;flipV=0;" parent="1" vertex="1">
          <mxGeometry x="4747" y="3842" width="50" height="48" as="geometry" />
        </mxCell>
        <mxCell id="eyDwSRysMj3kFaCQzoZv-374" value="" style="sketch=0;html=1;dashed=0;whitespace=wrap;fillColor=#2875E2;strokeColor=#ffffff;points=[[0.005,0.63,0],[0.1,0.2,0],[0.9,0.2,0],[0.5,0,0],[0.995,0.63,0],[0.72,0.99,0],[0.5,1,0],[0.28,0.99,0]];shape=mxgraph.kubernetes.icon;prIcon=svc" parent="1" vertex="1">
          <mxGeometry x="4870" y="3842" width="50" height="48" as="geometry" />
        </mxCell>
        <mxCell id="eyDwSRysMj3kFaCQzoZv-401" value="LOGS" style="text;html=1;strokeColor=none;fillColor=none;align=center;verticalAlign=middle;whiteSpace=wrap;rounded=0;fontStyle=1" parent="1" vertex="1">
          <mxGeometry x="4780" y="3930" width="60" height="30" as="geometry" />
        </mxCell>
        <mxCell id="eyDwSRysMj3kFaCQzoZv-402" value="" style="shape=image;verticalLabelPosition=bottom;labelBackgroundColor=default;verticalAlign=top;aspect=fixed;imageAspect=0;image=data:image/png,iVBORw0KGgoAAAANSUhEUgAAAQAAAAGdCAYAAAD9iq37AAAACXBIWXMAAAsTAAALEwEAmpwYAAAAAXNSR0IArs4c6QAAAARnQU1BAACxjwv8YQUAADI+SURBVHgB7Z09VBtZtu/3KSEjGeGGnum1EAQtss6Ms76R5awnapy9iYyzmcg4unMj42juRG2i2y8yRNMTGUfTE1mOXk9knM2NLAdG8rLXGrxgkGxQnbd3qcQIWYA+TtXZ52j/1qL5dIOq6vzP/jp7K5gwFhYWSviuHACUIAi+Bq3n8POSBphTSs3Fn/8bpfa11vsKYB9/Zh9/pgph+FortXtyclJ99+7dLgiCoyjwmDkkn8+X8UN6u46Ld+WzBW4AFIYKvnuJb5VGo1HZR0AQHMA7AYgX/R38cFW1F37qkCAEWm+1AJ7X6/UqCAJTvBAADov+PDpi8K9m86lYBgI3nBYA8ufRrF/HtztJmPZGwVgC/ncnDMOHYhUIXHBSAHDhl3HRP+C22w+MUlsiBAIHnBKAeMffwD/6DviACIFgGScEgHz8q1ev3sMP19mb+iOAcYJHmGrcFCEQ0iYDzCFz/0o2+1f8cBXfcuAhqMLfomWzeq1Q2D84PHwJgpASbAWAdv1fzc//ERfGj/Qp+M8cugSrs9eulWZmZl4eHh5KxkBIHJYuAO36gVKPgar1JpNqqPVddAkqIAgJws4CKBaL93Dx/wSTseufB5Ulr6E1AAcHB89BEBKCjQUQB/p+wCDfGgjd7Bw1GneliEhIAhYCQOk93PWf4IcrIPSDXIJbkiUQTGNdAOLF/wwm198fFBEBwThWBUAW/9CICAhGsSYAsvhHRkRAMIYVAZDFPzYiAoIRUhcAWfzGEBEQxiaAlImj/SUQxiXKnFD6FARhRFIVgKVi8QeQVJ9JVqLaCUEYkdQqAanCD99tgGCalcLs7IfDw8NfQBCGJJUYQOT3B8ELH4/ycuH45OSGdCgWhiUVFyAK+sniT5Ts1JTEA4ShSVwAFhcXH4AE/dKglM/nH4AgDEGiLkCc8nsFQmrEqcEKCMIAJGoBxPl+IUXwmktWQBiYxARgaWFhDcT0t8EKZlzWQRAGIDEXYLFYJNO/BIIN9o8ajWXpISBcxhQkQBT407oELkADO7SuaIDX+NkrrfWHs99WX+C7ZfyZ6yoIVhzJZsxdzeXW96XuQrgE4xaAC7X+uMgruLJ38P3TYWvpl5aWVlqt1grNJkBxKANfxAoQLsW4AJDvr9sNPXlBO30Ybh63WjumCmaiQSW4y0ajyTii9cO9en0DBOEcjAsAR98fzfvNRqOxkdRuyFgIxAoQLsRoFoBb5F/HR2Zrtdp6kouA3Ihavb6Gv2uZfifwgaYmr4EgnINRAQgZ7YDxrn8jzaKYSAhqNQoYPgQ+fA+CcA7GXABWVX8MfF/KxePFZVGUI9WBwnkYswAyStkvPsFAH+789zkEvtASeETTfaLgo2Vo7iAIQh+MWQAcgn8KF9yben0LGBGPObNdEr2/V6vNgyD0YMQCoNw42A7+odnPbfETZHqTVQJ2mSMhAkHowYgAhGFYBptovcU5303uAJpam2ARvNFlEIQeTMUArEWaKe121Gza3mEvJTs9vWEzRaiVugmC0MPYAlAqleaUxd1Fa73hQqFLtVrd1xQUtATdI+kYJPQytgA0m02bXX530MfeBkeI4wEVsMT09LRYAcIZxhYAm77l8ckJp4KbgdAWi4SCILgFgtDF+DEApa6DBehEn4tdcG1aAUr6Mwg9mBCAElgAF9EWOIpFK8CKWAt8GV8AtLYRA9h3yffvJZfL7VqqECxJIFDoZiwBiAuAbPAcHCbKCIThU7BANpstgSDEjCUArVbLym4Sav0EHCewFAfAQODXIAgxYwlAxlJQCYXnJThOy5IATCklZwKEU8YSAG1JAHyYgRf1IrQQB9CSCRC6SHU8uCGq4Atapy8ASkkQUDjFOQsAU2hV8AQbZwOU1l+AIMS4aAH4g9avQRAs4pwAKJ9cAEGwjHsWgESxBcEYzgmA9smHVUpy8oJVxhKAwEIaS1k6eyAIPjJeFsBCGgvxJo2FYmajlFoCj8IpYwmApYAcNbgsgeNQJyUbk4Y1gzblAh+cTANmPGhw+fHjxzJYIAxDHsNbBBaMJwCZjJWS3NCO6WwaK8M60O34AIIQM5YAZLPZKlgAXQ+e47iHAF+Dlf58zWbT+XMUgjnGEgA6126psYXTgy4sDlLZl1HhQjdjxwAwE2BlRwmCwFkrAP1wK3MUbd0rgS8mugLbOZuv9aqL7a0og2HNhVHK+T4KgllM9AS0tavM5fP5B+AYGITbAEug5WF7SKnAjLEFIJvL7YAlcCddd6kmwOruD5H4iAUgnGFsAYgCgRZP6OFD/RgcwebuT70Hoi5EgtCFkUIg3NWsdLiNf3e5WCxaCaoNA/6N96zu/lpXQBB6MCIALa2tuQEELqwfOKcFY9P/EVjE9j0SeGJEACwOujglQFeAYzyA/ib822wH3/bfvn1rzUoT+GJEACgOgCam7Uk90ULjJAJdi78ENpHdXzgHY4eBmJiYbESAzeIHMf+F81FgkMXFxX/aOOLah32Met+t1WpWHnyKRwRB8ITDtaDoP16HZRCEPkyBScJwE2MBHIpz5lDZnqAgbezt7aU6iXepWPwBF906Ln5gguz+Q0IVphjXOle8fUqnGrUAqMnFp0+fXjGxAjpUMT6x8SbhacLRrt+uSSgBI0KtlyX//zm0yPP5fBk//DrqzITPLEr2iqLBKYM8vxT01rqK/4aC31Rg9Upr/ZJOW7p04MqoABC4Az7Ci3IPmIF/UwVv0ENcDBUwCC18fGgeKI5NSrTe2qvX74LQ2dVX0TW7ic9BWSUr1Lu6PcG60mg0KpwFwbgAxMEvzl1nSLUf4UPwdNSdMXqN7dOIq7jI2DYnmfTdv3Of4gVfBkvQ5hOgGLdQFLjdD+MCQBQXFrZwV3ThuC4N6CTLYJfMt1artX98fFztKHYnmxA374xMxRR2DzNM6O4fm/aROLO0yjAmgy7pTtIu6aAkIgCx8r5gFguYKCZt9++yytYdee7GtkRNkIEEODw83J+dmcnj1lkGIX1w968x2WGShhb+7OzsozgAW8a3HLgBZaq+Q6tyffbatdLMzMxLWjeQMolYAATTjID3UN4fd5Vbvu/+san/yIf+kKcotRGG4Xaa9y4RC4BAN7pZKBT+F2/Q/wEhNXDxr+MD9Bw8ZnFx8UE2m/0Jn61vwS8oo7R6rVDYPzg8TKV3Q2IWQIdisfiMaTDGO3DxV9D0vwWewrXWIgnitPXdpK2BxAeD0IuwfVJwIsBrTOXP4CFk7lOFJZezFWlAmyal05PudZGYC9CBAhviCiQPRv1/56PpT0G+K9nsX8HSIBXbUKAQg5wrM4XC35MIEiYuAAT+4f+4Njs7D/75bCzAnX8TF/+fwDOWlpbuoE9MZxlKMNl8Q7GBXD7//OjoqA4GSTwG0A0Gb15wrpxzEYr6NxqNG74N/KBAHz4rGyCcAe/3/VqtZqy7VCoWQAfMdf4NfVWq0JLUoAE6Kb/3798b3RVsQv7+l19++T+4+Nn3ebRB5BJcuwYHBwdG3L1UBYB8mC+++IL+cIoHuFKwwRMM+gVB8BvcDf4BnkCL/2o+T4G+70C4iLIpEUjVBegQp3NkSMUYKMyuvKnXt8ATOHVQcgaltvb29sbK/KRqAXRAS6CKUc3XFNgAYWhk8QsxK1RGjJbAyA1frQgAgSKwKyIwAlo/3KvXrbYYNwmZ/XGa7xsQRmGlMDs7h+vpbzAC1gSAEBEYjigCXK//N3jEl/PzfwapFB0LKokeNSZgVQAIEgFUsJcoAhT4kcBgPzDgh2b/73Hn/xE8Ikr1AfwOBBOUcTOtHg55hsBKELAf0fQc9AOdaLaRIpTqw2j/7Tdv3tiawpwI8ag0b1wZJuwfn5zcevfu3cDPChsBIOKmDk+kWOiU3VDr274d7XWgbZzLVI+GKAyz7gJ0Q3UC6Mf839lCQU16MxEq78Uc/20bTSKSJA76/T+QYrCkmMtms98cHB7+ZZAfZiUAHfCPr6A/85xEYNKqBuPqPtr1vfL3O8zPz/8ox8MT5xuMq33AzeOXy36QlQvQSzxVd8ORBqNjQ7t+o9HY8K2uv8PSwsKabp/nF5JnH93HG5e5j6wFoMPS0tJKGIZPfA0Qxrv+XdMzCzgRl/m+AAnypsnOHrqRF/1A4g1BTEARcJpvh4p2lxYL+EK7iQed7lr2efETM/k8pfxKIKTJKpXdX/QDTlgAveCLWoun8ZTARahDUhhuHjWbj3w197uRqL9VqnsXDIdlGQS8DCoewrdNqiLExbTiTKCwPU/uT5im+e279+9/biIwAVDbbrxHktq1w9xFAUEnLYBeovl8AGtcg4XUrBNN/Ye+m/n9cGn3x/tUVdSMUykqpHmNn5N1VqXvZTKZuVarNUfDQxXVqSh1PRom6oYVuo+bznI/a9MLAegQj/IiMaBWUmWwCC16fEh2MKq/PQlm/nkUi8Utzr37x71PcYD6Jn64zloM2ofINnq/7JUAdHM6/lnrVbzBN5O+OZ3dIwR4jpb9ziQv+g5sd/84BoP3astklWVsiT6wvfmcQ18rwFsB6CXJHLQOw/u1t2+lrr0Hlru/1lsYfL2fpEDHI+Mfc7MI0HVZ6x1K6kQakDuBzD34jLiIi83ip/QxppFv0cTkpK0zivVQapfMbmBEqNRa79dEAIREyPAq9yUf/0baQVjyuWlKM5faFSrB7q0LEAEQEgHdrQfAAQp+1Wq3bcVkKMZAnZuhnVmwTm/zHREAwTjxLlMC25wT+U4bEoErV66wEAFyyyhA3vlcBEAwjurja6YOk8XfoVqt7jMRgblcLndalCUCIBgHd5mbYBOM9HNa/B06ImA7JtDtBogACEahwhiwaP7T4qI0HzCFRIBavIFFurMzIgCCUcIwLINFKODGvQgr6u9oN0U499VXX0VugAiAYBSr5j+a/q70T4xcFIvxgKmpqTK9FwEQzGKpDDYq9AFgVXhzGWgtWXNVOm3ZRAAEY0T+v9ZWjmYrrbdd655MhUkoXBWww3X6jwiAYAzc0UpgCTrYAw6i7cUCSlQPIAIgGEPZmufgkO/fS1SebOksCdUDiAAI5lDqOligpfUOuEwYboIFlFIiAIJBlCqBBd6+fTvyeGwOhPbiACURAMEkJUiZqKOP49hyA9Bl+0IEQDBCqVSas5EBwHTWc/AAFLL0awLEBRBM0Ww2raT/0P9/AR6AC3Gosd6GkCyAYIwSWABTj6/BA0JLB4REAASnyWQyXrRjC9otyNNGgoCC27ia/+8ltFQLIAIgCAzQdiwAEQBBmGREAASniadBOU/GUhBVBEAwgq1gHM3rAw/QdgSgKgIgGAEXohUBuJLJeDF1mIaOggVEAAQj5HI5KwKA0XMvBCCMz+enCc2zFAEQjEDNLi0da7VyAtE0ysIkJbQ6PkyBx1DjQ/RNV+jYo06wV51W6l6xWFwJtH7xqdV6+e7dOxZTYFKnncpK1ZTFhbNCjS1cnsbcO64rLaiNmlcCEE9lpR1hlRZ9iodTVuhBRCGA7NQULC4u7seHO3bw/cu0Z9JZhF5zCdKlM+iiAo5icZCK2wJAyk83nwYd4NudMwtea7AG/h2xSUeCBIvFYhXvcgXF4GmtVnO7ecUF4Gt+beOqq/Ycwgo4iq1OyrRJKXCQeKf/fNG7QNtP3gnDcNs3y2BpYWENraDHYIGjRmPeRTfA9jVzRgBot7969eo9/HDduUV/PlWl9UYL4LkPNe1UlBMo9QpswGwW4KCgdUjXqwQpQ/4/WqPL7AWAHirc6ded3O2HQakttAoeui4EGP/4p6X7tI872rJLVoDN3R95ulerrbJNA5KZj5H1Z7SjoErd83rxE1qv0WvFBfTY6fJWey265vL5/ANwCN2OXdj53XHMhJ0A0MOPC38LF8MzG7lR6zguBNpiiy58XtZtpdSGBe8vLf4SWOLk5KRC79m4AJ76+GODC+oRRms3XXENrMYB2lTRFbjB2RWwfY06/j99zMICwB1/FRf/K1z4G7L4z0K7GllD6C/eAQeIhaoK9iihK/AEmBIv/mdgEdXlplkVgNjcJ1P/iSz8Cymhv7hF14q7W0CWnK1JNx3IdcRr9QMwIxrFpRSJUwksEgJsdz7OgCXwBt0LguAnvFnfgDAQeK0oI7JWmJ39eHh4+Aswgh7uL7/88j+z2exPKOYlsAxeq29nr12Dg4MDFm3DIxc3n6ed3+rhJTL/0Uo7nUqcugBED8r8/J/JtMVPcyAMSw6v3Xezs7MrM4XC31EIrPu6FHi7ks3+FT9cBV73tIxiOYfX6G9gEbLa4utj/eQimv87B4eHp5OUUg0C0vhoHYbWTSCPqB6fnNy2dfiI7mcYhj84kK3ZDbW+bSOQyu2Zx+flRvfzkloMgEx+vBA0xKEEgilK2ampF3FKKTXIiltCH5vupyOp2hUbgdTomdeazP4S8GC3d7NIxQVYagdkNkBIitRMXXqor1y5QgeayuAWFJxcxbhAaWZm5mWSrhO5ROiiPUZx/B0wconQCvoDvu4zE4gSdQFop6CUzEQW9NghMVOXHmrcRUnIvejAQ6XXx8fHmybdp/iQ2gOOz3t37r+bxAQgzneS7+PHA+MOVRSBW6ZEID6L8dhjEd/FxbF1cnLyfBQxiIQxCOg4L+sCNnwm1vCZ2O79eiIC0FXsUALBBmOLwIRWZlaBmppo/VIrtds1rKNK3YczmQxdBxqnVQJqPKNU2YVrc97uTxgXAFn8bBhZBKJTakHwgxRn+cF5uz9hVABk8bNjH2/+jUFFgLMPK4zGRbs/YSwNKIufJVR6emn5MJn7E30C02M0na+5ACMWgCx+9vR1B+QEpudovbVXr9+96EfGFoC4xlkKfPize9Ro3Oock43TetSNpgSCd5DprweIAY1dCER1/fjuWxC4s5DNZr+59sUX/1soFP6Mi38DUu7hL6QHLv51XPyXHoQaywKISlAv8TEEQUiZAUz/DiMLADXxiM7xC4LABjL9G0N0RBopCxBVhwGwa7ggCBONUjSR6tYw7dBGEgCJ+AsCP3Dx3x228GtoAbDdzVQQhD5o/XCUsXNDCUBUUCJBP8EQuGNVqD4BTVcrDU28YYypSEMJgO1upoIf6LgwqVavU566cuXKFRGBURlzJNrAWQCfU364E1WB5vT1a2et1JxuV8nRsdgSCKND3YLDcPOo2XzUG6gqlUpznz59eoY3Q46PD4qBeYgDCQCDYQ/GiBa7Uk9pNDJ+Whk2aBL3wSNXiKYTXwfpdzAYmJvGhX//ogi1iMAQGBqGOpAA0EER/EEnBlP0g3xNXPQ7+P6p6W458UEbKqulmnp5cHuga48m/8NhRqEvFYuPNM2DFPpjcBLypQIQ14y75/u3c6Lb+LYzzMM3DnF9xEY0yXjCiWvRN847h34ZiwsLG2BxeCZL8JlWYXj/Tb2+BYa4VABszS8fmQv8zLSIXCaAtYl8gA1ef7yOa4E0JokY9HDPsFwoAJbnlw/PAH5mmkygRbCD0f37Jh/SuCch9SkowYSCi3+z0WhsJPFcXygAruz+sTreTcvUHxbfH+JR/PxhmUiXoO3G3h2lwGfgX3HeN1zZ/ZNUR9N4F9xqP6BUgfYIUmDCrIGdo0bjbtLP9bkCEE/tLQNXEgiIpIE3fi0ufFtxFnw21/HdPR+FIG1rtq8AxPPMXgBT6CLhIrr95s0bJ6vHXN7JYnP/bt3CnL1uvIuvxMFTU+m9gX9tvy9yzvsnFQ1NG9dEgGucxXkhiNPVttzYzwSAc9WfL4u/gxMiYGlnGpaOEODfe9MRUaUBJE9tpquJzwSAa/DPt8XfgbMI4PV+3mg2V10IsHZDcRayYBVN7uFEW0x3QoBtLpbUZwKwuLj4gl0tNl64MAxv+Lb4O0RWVxC8YBgYrO5dMFSCO50ybatiQIu+fez5abPZ3OEmpmcEgKv5j7v/7SRzoRzgWnIdzxOogOPEk6rLQJktra8nJgjk04fhLi6s52H7sFkFGHNGAFjmqQ0efOAOpbe49VqkOgsU33XwkM7JTkUWr1LXT499B8HchdZYe5HTTt45Qv46bL+vuGalnhEAbub/ZXPNfIRh/YXTbsC4dI9V89EFPRUAjuY/mp/Lvvr958ExHnB8cnLj3bt30rHHQ05bgmW4Vf2h6T9pi5+IXjOm3YARU1NTZRC85FQAMPX3PTCBTH/Kj8KEciWXo1hMFfjA5tkQzPLvpqCMcqbUSMK13LNJqtVqdMgGmIB+4gpF0UHwjkgAKBrKxeeknW/ULjI+gddgi5EVMJfL5aTdmYdEAoCpkDIwQcvcgW7YxAIwby4C4CGRAKCJdxP48ByEiOnp6a2okowBmCu/DoJ3tGMAXPrda701iZH/86BYAC48Hu4Qt7p6wQhtAWBS/NPS2uty31FgdE1KEgj0jyAKAPJg/+3bt09BOENUS87EDchmsyUQvCKIptzwQHz/c9BhyEIYr2QyEgj0DHIBSsAATHlVQOhLwOTa6Aluze0rQcBFANqz+oQ+tPiI49cgeEWgmdxUH86cJ0WUGeEQB1BqHgSvIAHgENmV3f9yqmAfsQA8I1BKcRCA1yBcCAYCX4J9JA3oGQGHMwDMTr6xRPG4RiIAnhEAAwtAaT2xJ/8GRfOoBRAB8AweFgCTQhfOBCKSQgIEwAB5uAXBDiwEQBAEO4gACMIEw0IAQh6pSEGYOEgAqmAZxW8kFjukDl9IAi4ugFSYXQKTgq0qCF4RcKgxl93tcpic2ZBsjWdQHUAVLKO4tCTjDINrpCVd6x2YgtcfwD7SbuoCSqXSHIe2bSjUHJ4VwSABkxpz6oDLqTMxK5rNJotOPHJmwz/YCEAQBLdA6AujnvxVELwiCPnU4Uvf+fNhMZtPujb5R8DlpqIlUpY4wOfQuHDFZHJzq9WSIKBnBGzaTSH5fH4NhDMwGtu+/+7dO7EAPCMqBGJk2skY6h7QRbsDDBDz30+C+D8c2k1FbgCavGUQIjiZ/2glsnhGBLN0RoOxUXfMBrDY8TiA0f8NYEIYhs9A8I5IALK5HJ+ZfFqv0c4HE068+7MRQxQAadzqIZEA0BRaYJTjRSvgAUw4nHZ/KgCSAKCfnJ4GxN2Gz2BOtAK++uqriZ1Dx233V1pXQPCSUwHgNpp7amrqB5hQOO3+RChzG73lVAByudwul3oAgqLfxWJxHSaMpYWFNU67f4xMbvYU1f0JLrhnbNJObfZDrW9ExUoTAJn+gVIUbS8BEzSa/7V63ftzGlSFipsgVaKW4jfoNzgXraEqWmj7dDSaKiNdj41M9XxOcYAy8GEOL/ZjfD8RB4Vw8ZPbUwJGYABwCzwjzjKV40NWdAaFYi6lQf5tx2TGfwvB1BQsFoudU5L0RrUSFSqacmXTOmMB0LnzT58+veIwLKQbvMCParXaffCYxcXFB3jdN4AZaIEtu26B0e6ez+fvxAt+NaXnm0rsSQyeNhqNyj4CDFG9X2DoBkSgCNxHEXgEHoLX/B5ec3avzWXzv7Po8cNVDs8zPr+VQOutfzWbTzmJwWcCQKW4sR/KDtyN1nA32gaP4Hy9gfxdtEreOHTN6XriTv+A4yYW0Q607xwfH29yiB+ofl9Ec/Sf3NyADj6JwNLS0gruss+4XusOuu3X3uXqCtBuf/Xq1Xv44Tr3a9lNxyqwKbCZfl+cnZnJo1KVgSGo7quF2dkPh4eHv4DD4OK/g4vqJxceWAqQ4XVfn712rTQzM/MSrz0LE5YW/pdffvmf2WyWruN3+KUcOEQUeMTneXZ2du1aobB/cHiY+oGrvhYA12DgGZTa2NvbewgOwjXgNyBV3Lk2bcdjorgJFUz5NVRmFy3c22laWn0tAIxRNFGRivjht8CXMrcd6TLiHet/8KF1ucBpDneN72ztWuTjX5udfYJ/wxo4tuMPwELalpY67xtxUcor4E81bPunFWBMHOyjmoYS+IRSW2EYPkx61yLxnMnnH2jy8yeDVCytzHnfIPUpFArLjDrSngcVC61xtQbowf3V/Pwf8W/8kT4F/1hJetci8bySzf4VP/wOJoeOpbUyUyj8PannOnPRN1EAdunmghvQg7hqK5jSD/JTr1y5QoesyuA/iVx/ipeodjWij+I5CN/Ege/XKAL/AMOoy35gqVh8hKbIPXALa/nr06qztqlagsmkCmG4vvf27chHzOPr+IRtPt8GCQS+LxUAJzIC5xOVY6bho8Y5fWpq6lQuOlFGjA9wPBTFBSqLbzQaD01VE14qAMTiwsIG3kzXu/Ts4sJ8SmfbTQUMo8BeENzEhV+WneoCcOdCIdgeRAgiIQ3DJyCL/yKMpQsHEgAC/dlXypeb0j7OSWWYL+P3VXprNpv7vcrae0y0c4Isei87/TBc6pa5UhnJBMp+3RpXBAYWAOY164I7VI9PTm731sHL4h+JsUUgM+gPYgSyem12dh54FwcJ/JnLBMHvutOGsvhHhlLgq5gmfDpqmnBgC4CggODHjx9feOMKCNahoBbVccjiH4vqUaNxY5TA4FACQIgrIAj8oJOFtVpt6N4NA7sAHcQVEAR+kFVemJ2dw/X5t2H+3dACQBwcHv6Mv6wsroAg8AHX47fDHpUPYESoQYRmNE1IEIRIBB4MM1RnZAGg1EMQBLdBcAoRbe+Zy05NPaH6lUF+eCQXoMPBwUGdTA41Wae03EXrh7V6/TamjV6DUitqcg/Y+M7cVDabGyQeMJYAEORvzBYKimsLMSEGF/9evb5BH+I92y1g7hg/nHfguLcwAhQPQKF/TkH7S37ODI6eGpwIMF6zjTv/Wr/vxQdvaCDJKgi+cWl9wNgWQIc4M7CMiiI7CiMuWvwEVZDhvfuLuAVeQvGAj3h/K+f9gDELoEOxWNxiONxyUtndq9VuDPMPopOfQXBPKvO8YR+tgOXzrABjFkAH3FF2xBKwD+38jWbzt01kmH9Hu8XMzMxfQOIDdA2r+G6/86aCKGnmWiPS3EUBQeMWQAeJCdjjMrN/UCg+gCLwbBIKvmgMGrpAAw33pMNLYRiWgAaMAtwEBza782Y8JiYAhCeNRJwi7iRrtI8jCsFaPG6rBB4RL/qdRqOxPU6HnVgo6Zp/z/YaKbW1t7d397MvQ8KICKRIV6ovCXy5l7TwUSgfJtFKnrFY9o0FGI8B9EI+JcYEyLT6ViLMCaHUvtL697j4H0GCRPGBQoE6+jgZH6AqSN1upfXwsvz4qFCNBb5tMqyNyfXLCCRuAXSYJH8yTeKH+lY95cGdsR/8xJX7Sa4RmvobaY7mZvjM72NWaL77C4lbAB0o3/zrX/96O2y18iBHiY0QR/pvv3//vg4pQ2XgtNO5UD+Ai/8+xkU2hs2IjAs983SNGB2fz/VWB6YmAATNHKSCISk6GRNqagrwXxjp/0PaD3UvnbLiALc64CbseJ0w+v0btI5+AovQM8/GJVCqhPfstDFrqgLQQWrRRycKYLUf6p+BCXE14c+s4gMUF1HqFu78LMbIk+/NQQTIHclMTW12Ng4rAkDE5tGOWAMD8u9d//dcpyF37imHZjF4rX6Laa8KMIKLCExls287TUNG7gdgCtzJtiiIRf4sCP3Reuvo6Gg56UmxprBuAdCx51ptBxgSp2lt/23fdz5ILQswCFHUFOCxkqPFEUnmq5PCetNYFEtcZHeBMQy6a5/WBFi3ALqhVBaauLfCCW83RgufBj7QtXBp8RMZpawdK6ZnJkTBBOZUq1WaTGVTpGjaVWSlsRKADuQWoAm3HAkBlWtOCC4v/A64AK+DPTbTrocYFbq/1MobLBHEsyxZuQDnQWYl/qFUYunlMWMXTf3zWCwWNViAdn/aNMAh4mYsr8ACnTkCLC2AXmhh0Ok2OtFEAR4v3AOM6tNrQV9s3uUdvxsSarAEiugGOAZZK7aC353j+k5YAP3oWAW4kG46U17cnkq8jW87Piz4XorF4jreix8gZVzc/TvYDJrShjoFjhIvIHpriwEGn5iezd7FB/R5tOhrtQp4DJqTJRv2v3I4TkTPMQpnRcU+eZrgM3ndWQHoplsMqB96Pp8vA11QfIEqCFZSa29FO3wY7lJjCWoq0Ww2d9I8fGIbCgDaMCmPW61NcBgUsOc2ioOCIFh21gUYBjq5BmG4lliHIsw9h+0gXhUmGAwAUkCrBCnisvnfwZobgM+tE0HAcXnz5s0uvthdSAhU0eeTvvhjSpAyeO1fguNEFiwFhdNGqfmJEAAheSilBRawmUs3ip04xtciAIIRMpmMlcNcOkHLLk3QknkN6TMnAiAYodVqWREA/L1+BFntCJkIgOA2x8fHVRBGRQRAcBtf0qwtS9WtIgCCMMGIAAhOQ4VfIIyMCIDgNLlczgsByFg6zyICIJiiChawlX0wTaiUjddRFQEQnOZKJuNFV+nAjgXAqyWY4C62SqFDT9rK2+ikpLUWARCMUoWUiY+AOw01CbVxHFiJCyAYxcaBFoAV1zMBHz9+LIMdXosACMbQYWjlZF4+n18Dt7HSSbml9QsRAMEcStk6mPM9OEpk/itl5e/H3/tBBEAwSRUsQP6zzYak43DcbK6m1rGqB+pDIAIgGGN6eroClsDd7AE4iLb3d0fWmgiAYAyaeANiBQzM0sLCGtjqaB0fPxYBEIyCC/EpWMIlK4A6KFnc/SkAGA0oFQEQzGKxQw9ZATSbABwAxWoDLM6zwN8fZWxEAASjZHM5q6OvUQQefPXVV6yrA8n0x7/T5pi73U7lpgiAYJRo8q3dRp1z2ampJ7aalF5GZPoHQerTk86g9ambJgIgJIG1OEAMDd18wq1CMB4G+sxW2q/Dcat1aqWJAAjGwXTgFthn5Wo+/4yLCJwufstzLGmQyrt3707jNCIAgnEYuAEdSARe2HYHaDIVh8VP9E5RFgEQEgEftIfAg2jntVUjgFmJezoMXwCfCdbPuz8RARASwdq4q/5EIrC4uPggLZeArA5c/M8w2v8IuKD1Vm/fhokQAEoLhQlOX8X/93XuqScrhCGvqb1o/pJLgGm4xFJwJDAkNEEQvLBxxv8iQoDt3q95OR2YbkIul1vFm0DNIlbTHA9OM96U1jstGRganXT79OnTK9tR73Oo4n3aMHWfyMVQSq3i2x2OrxddskqtXr/V+3VvBIAWfT6fJ2Vf5aK8FAgL0OyaZDFYXFjYAP4lujsk2p9arZfdEfKLiDeZFdpkcHGVue32vYRa34rcsh6cFwDuynuKUlthGG73uwk+w9wK+By04mjgKC4MymS8RmH4dxwjCL6m14FfX1F8gnqXct7uTzgrAPHCf8Bdefuwiw/Vozf1+jZMCI5YAd5yfHJy4zzLxjkBcHjh9xL5oJMgBGQFfPz48YVLu6Y3oAu6V6/fPe/bzgiARwu/l2rsn1XBY+j+xcUwQkpQ1Z++5NlinwakYMtSsfgDPTweLn6CctSvMHX0mOsBFhNQ7INJdeAksXnZxsLaAoh3jccwOaaj125BVA+P+XFnAoJus7tXq9247IcywBDa9X81P/9HNPl/pE9hcpjDYNnq7LVrpUwm87yJgEccHh7uFwqFj7jrfAdCcmAmg9xKut6X/igwg8upKQZ4GxtAl+4RugP3QEgEvLb3a7XaQCXIrGIAS0tLdyITURY/QUL4wpUWV8OQnZ7e0Jaah/oOXtfNQRc/wcYCoPpp6DmqKMQotbG3t8fldJ0RJB5gHhJVXPzLw/wbFjEAivLjuz+AcB7lwuzsHPp0fwNPIP90Zmbm7xjnWQNhbDopv0H8/m6sCwClv/Dd70C4EDTVvqXg4MHBge12W8bAh7WKwvZBgoJj0i5f/o9R4kVWBSBa/FqvgTAoKx6KwC+zhYKCBI9rew0ufrSibqHp/w8YAWsCEJv9svMPj3cicHB4WBERGA2l9e/f1Go/w4hYEYAo4Cc+/zis+BYTEBEYEtr5afHX61swBqkLgET7zRDHBAAtgefgCSICAxKb/ePs/B1SFQDMaVOzjh9BMEV5plCooiXwEjyBRABf02sVBGX8NAfCGeJo/3+M6vP3klodgOR9E4PKPm/4VjFIz4tqHwArgdBhF+/1bZP3OrVKQA4TUTxljq4ttyk440IPOeW15QRhG6rwo8M9poU+FRcgjvhLrjc55qay2ZxPQUGCilrwbXui4wKU4wf47TDlvUP97yFhaBKqbh/pFRIGH5Tb+KBYnc6bFJPoElAvP7ynd5N07xIVADJLqQ87iB+XFvtHjcbyPgKeMhH9BduVfQ+T2vW7STQGMJPP040qgZAW1Brd68WxV69vYCBsGRfJQO27XYN8/aOjo+U0Fj+RmAUQn+t/BULqnNcD3jfwGVuL+0SWwHHSMPf7kZgFoMTvt4aakBbcuFi26PgrCt5dV/sL0MInwaa+/TZSuYlYAC4G/vBGVFV7mGUV4mEQOt5ZVBCsuJbCnBQroJuoczTAWjQkhjP0nIXhZgiwZbt+IxEBWCwWyfQvAWNIefHFP8ebUGk2m7uXBc5OR0EBlFEYbir+aanq3pDNIXwh7q5MDWWp7Riboa30zOHi32k0GttcArXGBYD17h8r71Gz+WjcG9B5yDj7oJNoBfQSpw+/x9W3mrpoUzQ/DHe5LfpujAtAPBO9DJygLqlhuF5PqN0212AUVdGhj3wLhIjPrDjDrl3sRu7SdcePXw5iWdrGqAAsLS2toOK9AEZQWgXVdyONG8ExRy1WwMV0RAGoCWtbwL/GezinzwoDWRGUm4+eIfXvgONrdCGrmUxm91//+lfVxfoLowKAu/8W/g9ZBGDiU1N30374uVWsiRUgXISxNGD04DNZ/MiutrTzdQ6x4IcsSnLxnqz4dlBIMIcxAcgw8ftx8W0fNRpWB2rQ78YI/G3cfROJOQwJVQeugSD0wZgAhAxyr9FQhHp9jYsvhqb3Gu7Am2Cf70EQ+mAkBsCk7HeHdl1gCIfYCFpF8z4fEhJGw4gFYNv8p4AfPuB3gSnT09PrtktVxQ0Q+mFEADQVWliEgm6cd7dqtbofBMFtaJca20LcAOEzzMQAbJbFav3QhX54b9682aUqRLCEYlQSK/BhbAGg4h9bB2XIrKbz4eAIV3K5RxZdgTk6LAOC0MXYAhCGYRksoR2bL0CuAHV6AUsopcQKEM5gwgWw8lDRTppUbX+S0Bl2W7EApfV1EIQuxhYA3FWsPFT4MDu3+E+xFQuQiTtCD+NbAFpbsQComQI4CsUCwA4lEIQuxhKA+Ex86lBjBZcn4USxAEsDL2zdM4En41oAJbAAdfIB97Ey3ltLHEDoYiwByFgSgNCDcVG4EK20tZ5Sah4EIWYsAQiVspL/p04r4Di5XM7Ka9ASBxC6GEsAlJ0CoH0fDrVQHAAsFAVpS6It8GQsAbCxm9gynRPBQj0AivYXIAgxqY0HF/qgdRUEwSLOCYBS6gN4Aloz3rwWwU3cswC0/icIgmAE5wTApyg2WjPijwtWcdEF8CaKjWImEXnBKuOlAe2cbfdm0ViaHfAaBCFmvDSgnWOtJR/63JdKJXoNJRAEi4wlAEE8Kilt4lFOTtNsNq28BmW5OanAi7EEoGXpYQq4DR8dAVvdeVoiAEIX4wYBq2ABdD1ugvtY6dLbarVkNoBwytiDQRYXF/9poymoy4MubA5S2avVjI+EF9zFRBqwCha4msutg6NYHKTizzkKwQhjC4AOw5dgA6XuuZoNQBfmAdhBUoDCGca3AJSytas4OfV2aWFhDSyl/7QHjVQEs4wtAEEQVMAS6Mw+cM0KsLj7+3WUWjDC2AIQjbyyN/OOrABrC2pYMGBKf2sJ7LBfr9crIAhdmDkLoHUFLIFWwLoLI6+ibrwWJxnJ7i/0w8x0YMtdejGl9pizK0B/G/6Nz8Ai2uE5CkJyGBGA6enpLbBLCV2BJ8CUq/n8Y7Bf9+9DK3XBMEYEwOagiw7oCpTRx34MzIj/plWwiOuDVITkMNkPwMqgizNovcZJBJaKxR/obwLLiPkvnIexslA63vrp06dXYKdVeC+7oda3be165PPHZr/Vnb8DXotlsQCEfhizAMgNYDSxd4WCbjbm4C0tLa3g4n8BTBY/CvKWLH7hPIy2BGtpvQN8iA7cUO49jQwB/Q76XToMafGXgAkhgLtj1IXEMX4yrFgsPlP8zutX0TrZeFOvJ7IYqLw3rvArASPQ96/WarVlEIRzMC4AVJRjO+d9AVVQaisMw+1xzeLIz7969R5+uM4k7vEZ6Puv1RMSPcEPEjkbztQKOEOcttzBFNlLGjZ6WW8BWvDUiiwIgpv4b8oOvD7Z/YVLSUQAmFsBfdHtvgZVvCD7p2cb2jt7idp3K2bm/WXI7i8MQmLdYVywAjxmd69WuwGCcAmJDQZBU/k+CFagGggQhAHIQEIcHBzUr83OzuOH34KQHpj3r4npLwxIoqPBstPTG1raUKcGXWvM+z8EQRiQRAUgOiSk9V0QUgGv9YZU/QnDkJgL0OHw8LAqrkDy4O6/iYv/TyAIQ5DKdGByBSw2D/UeMv0bjcYGCMKQpDYkIhqGEQQvuFbNOYtS+2EY3hDTXxiFVCwAgh5QfFAlPWUYirHI4hdGJfEYQDcUDyjMzn5As+M7EMZH64eY8vsRBGFEUhUAAkXgl9lCQaHpWgZhdHDx79XrGyAIY5C6ABAHh4cVyQyMDpr927jzOzsbUeCD1Umxcl5gJHb2ajWJpQhGSC0I2I9arXZLS8eaYdg9ajSksEowhhUXoBuMCeyIO3A5ZPY3ms3fXta3QBCGwboAEBgT+FkCgxfQjvavNxEQBIOwEACCAoNRilApsgRyIESgi3QfF/9/gyAkgNUgYD+oYhBF4JlrHXhMQ+W9QRDcjqYvC0JCWA0C9oOq2qanp29oPjMGbLDTaDRuyOIXkoaNC9ANxrmaFBycKRReY1xgBa2ByTg/oBTNWPwvzI7cF39fSAOWAtABRWC3UCjQzMF5dAtWwGe03sIU32/ev39fAUFICXYxgPPwNTZAk3tx13+Irk8FBCFlnBGADigEaygED1wXAgryxR18pBBKsIZzAtDBVSGId/wtWfgCB5wVgA40hARfBInBHWCMmPoCR5wXgA7xKHASgzuKSUUhLXqM7FNKb1tKeAWOeCMA3ZwRgyBYSa0NGaXxwnCXFj0u/qfSqUfgjpcC0EvkJih1PT56XMI3IylFXOQ0S7CildqlIaNi3guuMREC0I+lpaWVVqsVDf8MaACoUnNK6y/6/Sx+7wN+bz+k4aG0y2u9K7u74AP/H70UC32uvqYcAAAAAElFTkSuQmCC;" parent="1" vertex="1">
          <mxGeometry x="5060" y="3900" width="37.5" height="60.5" as="geometry" />
        </mxCell>
        <mxCell id="eyDwSRysMj3kFaCQzoZv-405" value="" style="shape=image;verticalLabelPosition=bottom;labelBackgroundColor=default;verticalAlign=top;aspect=fixed;imageAspect=0;image=data:image/png,iVBORw0KGgoAAAANSUhEUgAAAQAAAAEgCAYAAABb3q1QAAAACXBIWXMAAAsTAAALEwEAmpwYAAAAAXNSR0IArs4c6QAAAARnQU1BAACxjwv8YQUAABDbSURBVHgB7d1bchvHvcfxfzdA2c45VUEdy89CVmCorNiJrZSAvB7HFlcgaQUmVyByBaJWIHIFBC2fxxOM6vginzglaAWCniOVoKc4ImY63QOA9wsuc+uZ76eKEgFalCy7f/Pvf/f0KEFlmV6jISsrTYmiZii6oZRpijINreS3RqmGGGmIqObhL4ga4t6/kBoc+R3GnysZKmOGUaReah29CcPa25qyX1NqqG7+oy/IjRKUmvmp0ZT9Wktq5lpk1O+UVtfEqNZsgzkjNhzsn6XvgsKE8lwb03fhIKNRX3WGQ0FqCIASMd9/1AojaSkdtZTSt+wgbxZmkC/MVRFqYCJ5EgeD1gOqhuQQAJ5y5XtYW7ldrsE+o0nFEIeCSEClsDgCwBPTAV+rRbeM6LZ9pyk4KjDG2OmD6qo/vQoEMyEACsz839V2pMzt+AovpiWYR6Ak6sq7aM9WBwPBmQiAAom78rVaW2rytTFyuzIlferMwP597lEdnEYA5Gxa2uuauWPnti0GfdrMQLm+QaR2CAMCIDeuvBdt7nClz9OkMtgPt6o6TSAAMhSvyUv9jgnNGoO+aFTfrqhsya/hkyqFAQGQAXe1N1ru20/bgsJTYrbF6IdV2G9AAKQkbui9X/+Gq73PxlWB+uPrHSkpAiBhk6W7u/Yv9msGflnYxmFNb8k/90u3pEgAJIQyvxri6cG7cLMsQUAALImBX01lCQICYEEMfDi+BwEBMCcGPs7iaxAQADOyXf2muVJ/JAx8XEBp2ZBfRzu+BAEBcImD5bzI/ocFZmJXDWwQ+LB8SABcwPzwX98YozZYzsNi4vsO1tQXr/ekoAiAMzDPR5KK3B8gAI6Iy/336veNkTUBkjU0SjZrn7/akgIhACZGP354W0fyiHIf6bLTgndhpyjVQOUDgO4+8jBuEr7alJxVOgBo8iFf+VcDlQwAN9c3V2r2qq9uC5CzPKuBygXAuMNvHh174g2Qu3yqAS0VYn68+sAu7/UY/Cge5XpRz8xPH96RDFWiApg0+nbtpxytjcJTSrbkX6PNLB52UvoAiEt+ZXZp9MEv2UwJSj0FMD9cvR+X/Ax+eCebKUEpK4Bxlz8u+dsCeC7NVYLSBcB4vl+j0YdyUdJV/xqtJz0lKFUAMN9HuSXfFyhNDyDe1cd8H6Wm4ur23fcfJbaaVYoAiJt9ogt1lxWQDtWsK/Ms/PFqInesej8FMD989MiIuStAxSTRHPQ2AOj0A8uHgJcBMBn8ttPPzj7A7RxUn79alwV4FwAs8wGn2Wnwdu2L1/dkTl4FAIMfuIjqq3f7nXnuIfAmABj8wCzmCwEvAoDBD8xj9hAofAAw+IFFzBYChd4IxOAHFmVa0ZXag8v+qcJWAJNz+54x+IHFXbY6UMgK4HCdXzUFwMKUqLvuKLzzvl7MKcCVFfcHZpMPkAD3pCvz09X7Z32tcAEwvrGHvf1AktzTrc+6gahQPYDx4Ocx3EBalDZ3jz62vDAB4M4+M5HaFgBpGo6M6ly5+Y++e1GIAIiX+1Zsx5/DPIAMHJ4slHsAsNYP5GGyUUhyFv1w1a710/EHsub2COS6CjBZn2TwA7lQL3OrAOJDPDnHD8iJ6eovXq/mEgCTZ/W9EAA5sE3A34TX1fXhMPMpwGSPf08A5MAOfm1XAK6P7xLMPACildoWHX8gB8YM48H/x8MHi2QaAG7er5TK9PnnAMYiLfeODn4nsx4Am32A/Bgj67Wbr0413euSkclmHwY/kDEjsnnW4HcymQK4m3yY9wPZiwf/F682zvt66lMAlvyAfFw2+J3UKwCW/IDszTL4nVQDgNIfyN6sg99JbQpA6Q9kb57B76RWAVD6A9mad/A7qQTA6PsP71L6A9lZZPA7iU8BOOADyJAxw0hkvX7z9bYsIPGNQNFKbUOJagqAlJnBSMLVKzeHfVlQohUAjT8gI0YCVRud2ts/r0QrABp/QPqMMQ9rN1+vSQISCwAaf0DazCCM1L2VP70OJCGJBYBWcl8AJM82+oxRD/V/hlsr1y9+3Pe8EgkArv5AOpSYbfmPcF0nPPAPv/+SWPYDEuZO7lHSFR1uLtvku8zyFcCVujvhpykAlnOk1FcpXfFPWioA4qt//CTfQj1jFPCHG/QiO5FR3SSbe7NargJ4r/6NXY9sCoDZ2AHvHstljDyJRII8Bv1RC1+64+O9V+o9zvgDzuAGujLu4Zt2wJt+GNbe1lb2g7Tn9AAAAAAAAAAAAAAAAAAAAAAAAAAAAAAAAAAAAAAAAAAAAAAAAAAAIE+nHg3Warcb7/8qPO4LXnv6NBgILnUqAG581l6zbz8QwHPGyFApGdj/nwdioudGpB/+RoJ+EGTy6G0fnAqATz77864Sc1uA8urbMHiiI7P9t78Ffamw0xXAp5039l2mAKiKvjFmy1YGe1WsDI4FQOvzdqseqmcCVIytCAbKqO2Rjnb6Feof6GMv9qUlQAXZK2FTlNmoGdW78emf70tFHAsApfXXAlTYNAg++azz4saNdltK7ngAGNMUAOMgqJW/GjjoAbRa7Ub9PfVGABzj+gOhMp0y9gYOKoD6+8z/gbO4asD1Bn7/+3bpxsjhFMAQAMB5XAgYrXqf/qF9R0rkIACM6FsC4CKNyC4VlikEDgKABiAwGxcCZVkhOJwCKKYAwMxqarcMPYE4ANwOQAEwj0ak1a67e1Y8FgdAbWTXPAHMxTUG6/9Uu+KxOADsvwgVALCY9vgWej/FAWCECgBYnLrf+kO7KR4aVwBKXRMAi2rUjXokHqICAJLR9nFpcNoDaAqA5dSUdzcOaV/nLkABeVcF6DpXfyA5nlUB2kSc/wckyKsqQCtFBQAkydSUN6dqa7sEQAUAJMg21b25W1CzBAgkruHLNECL0r8VAMnSui0e0EoMUwAgacp4ccCOFgBp8OIGO3oAQDoaPhwYQgUApCT0oArQimVAIBVaF39saZ4EDKRDiXwsBccUAKgwAgBIiRHVlIIjAIAKIwCACiMAgAojAICUKDEDKTgCAEhJJOqtFJzbCjwQAImjAgCqLJS+FBwBAKRkVC9+da0VUwAgcW5q3X8aDKTgqACAFNj5/3PxgDbGvBQAiTJKvHhsuLsbcCgAEhWKPBEPuPMACAAgSUb6Psz/HR0ZmoBAkow2W+IJ92QgKgAgQb6U/44OPVirBHxhxGz7Uv47WiIqACApoZJN8YiO04pGILA0367+TrwRyNAHAJbm29XfmewEVIW/aQEoNKM2fbv6O5MAiNgNCCzI7fv/5f//uiEeigOAG4KAxYXKdMRT4x4Am4GAxXha+k/FARDq4h9cABSN6/r7WvpPxQHAUiAwt374gayL5w7PA1BUAcAsXNNvpMxqPwi8v2geBIDx5AADIE9u8Lumn8/z/qMOAyCiAgAu0S/T4HcOAiBaIQCA89iVsp3RB+Ua/I46+uLGp5039p2GADjCrP/yc+DNPf7zOH4oKI1A4ED80Bxb8pd18DvHAoBGIBCX+0M78DfDD8z1X54GgZRY/egL1whUHBSOCjPGdEMt62Wb65/nWABE+9LV78kjASpkcsXvKiU7f/+53Ff8k9TJNz75rPPCvtkUoPRMYEfAk9H7slWGTT2LqJ96x5gnolRTgJJxV3qlTN8297orSvaeVqTMv0j9jPe69uOaAB6bPpo7EruyZeTlipb+058Z8AAAAAAAAAAAAAAAAAAAAAAAAAAAAAAAAAAAAAAAAAAAAAAAAAAAIE1KltHbbQuAswzsx1A6q4V+6OiSAfDtC/stmgLgIn1xgRBFz0VH/fh1Z3UgBbBsANy13+KRAJiXDQJlP/Z3bBgEkpPlAsDpPX5mf2wJgEXZaYLq5hEGSQRA2/0oAJIwsMNyw4bBXhb9g+UDwOk9dgHQFgBJGdiPbZHRTpr9Ai3J2BQASWrajw2Rek96392RlCRTAThUAUCaBrYaWLXVQF8SlFQFYI3uCYC0NG018MyuvD2Q3m5DEpJcALh5SiQPBUCK1No4CHabkoAEKwD33UYbEi9pAEhR04bAC/nfb9dkSckGQLxsoWgIAlnQyk4HHt+XJSTXBDyKhiCQIbUtnS8X6sGlFQBtYXMQkCW7OjDqzLt5KNkpwFTnLwENQSBTrfGegfmag+kEQPydXUPQDARAVuYOgfQCYNwQZG8AkK3mPCGQXgA4TAWAPDRnDYF0AyD+HZgKADloTkLgwl2D6QcAUwEgL83LQiD9AHCYCgB5GTcGz5FNAMS/U7xNONE7mQDMpCW97848ui+djUDniZsSdXeEWGJ3MwGYldmSzlfrR9/JrgJw4pNNuFcAyIdaO3nvQLYVwNRfv90WpVI75QTABbS6K7e+3Ik/lTyocI2lQSAnkZ0K9P4nPsk7nwrAoR8A5Gngbh7KLwAcHiwC5KmfzxRgqvPVtnCiMJATtZNvBTBFUxDI2qZ0/rKRbwUwFTcF2SQEZKTrBr/7pBgBEN8vMFplZQBI3eDoEf7FCAAn3iRUsyHAqcJASgYnjw0rTgA4nf9204BVAZC0wWTwD46+WawAcNydg2K4fRhIjr3i69WzHjJavABwWB4EEmQvqOPq+pRiBoAz7lISAsBS3OD/qnveV4sbAA4hACxjc1JNn6sYG4Eu03u8YX9c6hFIQMVsTtf6L+JHADiEADCrmQa/408AOIQAcJmZB7/jVwA4hABwDrUunS+35voV4iNCADgh7vZvy5yKvQpwHlYHgKnhooPf8bMCmOp9544WeyBANbkdfp3zNvnMwu8AcHrf3p6cKsTRYqiSwVl7++flfwA48QGH4a7912kKUH79+Pb5JQe/42cP4KS4BAo7nCeACugmceWfKkcFMBU/BLHupgO3BSifudb4Z1GuAJhimRDlMoyfqDXnGv8syhkAzniFwIUAzUH4bDC+l3/xTv9FyhsATvzwkVqP5iA8FcTn9yU03z9LuQPAcSFgahscOw7PJD7fP0v5A2CKvgD8MLAf98ZH46WvOgHgMCVAsQVpl/wnVSsAHLdUGNU3RMs3AhRDal3+y1QvAKbiB5O6KYFqCpCfxHb1LaK6AeDQIES+Mmn0XaTaATBFNYBsBXZtfz2ttf15EABTVANIX25z/fMQACdxZyHSEWTd4Z8FAXCe8b4Bt1LAVmIsYyAZruvPiwC4CNMCLM49gfehvepvHX0ab9EQALOINxDFtxm3BbiU2hbZXy/ywJ8iAObBagEuFhSluz8rAmARBAGOC2S8ph+IZwiAZRAEVReIpwN/igBIAkFQNYF4PvCnCIAkEQRlF0hJBv4UAZCG3uO2jPcQcDip/6bLedtF28STBAIgTQf7COQWVYF3XCd/r+jr+MsiALISTw/iDUVtQVG5gR6Iu+KXqMy/CAGQNaqCIgpES1ei0U6Zr/ZnIQDy5HoFxtwVpb4W7jnI2mRubwd/Ra72ZyEAisI95NTYpiFhkCIzkMjsidbdKg/6owiAIjqoDJgmJCCwH0+k4lf68xAARefOJ9DRLYniJcW24DLu0I2uSGQHfdit2px+XgSAb1x1EEVtW8ba6kBawnRhPOC16dsm3l4Z1+rTRAD4zgWClo9thdC2r5oyDoWycldzO9Cj56KVeyR8wIBfDgFQNuNHpLfiUBhFv7OVwsfiZaVgG3ai3GB/yWBPDwFQFdNgENOwnXAbELVr9vOmjINh+nOG4gHuruiDeJDX9Qv753ppB3qfgZ4dAgCHxicfNccvzPjnaPKzE4fGJaLwrYxLdfut9Bv769+Ov6AGIqNB/CkDvDD+DUlOamfuVonlAAAAAElFTkSuQmCC;" parent="1" vertex="1">
          <mxGeometry x="5295" y="3904.75" width="45.33" height="51" as="geometry" />
        </mxCell>
        <mxCell id="DYVR5GmqD2k4Z60yoU10-9" style="edgeStyle=orthogonalEdgeStyle;rounded=0;orthogonalLoop=1;jettySize=auto;html=1;exitX=1;exitY=0.5;exitDx=0;exitDy=0;entryX=0;entryY=0.5;entryDx=0;entryDy=0;" edge="1" parent="1" source="eyDwSRysMj3kFaCQzoZv-405" target="eyDwSRysMj3kFaCQzoZv-406">
          <mxGeometry relative="1" as="geometry" />
        </mxCell>
        <mxCell id="eyDwSRysMj3kFaCQzoZv-406" value="" style="shape=image;verticalLabelPosition=bottom;labelBackgroundColor=default;verticalAlign=top;aspect=fixed;imageAspect=0;image=data:image/png,iVBORw0KGgoAAAANSUhEUgAAAQAAAAFICAYAAAC/eSBnAAAACXBIWXMAAAsTAAALEwEAmpwYAAAAAXNSR0IArs4c6QAAAARnQU1BAACxjwv8YQUAABIfSURBVHgB7d0/b1xZGcfx5844MUm2sAvYFVAM2hUNEpuVkJCgwG6gAta0SKxd2RYFySvA1BRARxfnFcQkpgAtzFAgsslGO7wAxDQUICRWSAgBmznce2ZsTDIez5w5997nOef7kcLmjyOhlea3557n/h4XH37jp04AZMeJ+0FHAOSnkJPNh4dHawIgM8XQFdf3qp9xAgDyMnKd8c7myd6H1S8IACAf5YffbW+eHI7OfoMAADLhOs93Ln74KwQAkAHnirubJ98dvvj7BACQuGrct/lo/8ez/owpAJAwN5afbJ4eHl3255wAgFQ5GWyeHtyZ9yUEAJCmkeuu71z1RQQAkJ7puG8y65+HOwAgKe5D15HtF8d9lyEAgIS4cWdv8+H+aNGv5xEASIQf953unyzzdwgAIAH+w//w8nHfZXgEAIxzY3d/3qx/HgIAMK0YlrP+XQnEIwBgl6/2ygoIAMCml6q9IQgAwKBZ1d4QBABgjHNub1a1NwQBABgyqfYeHkskBABgROisfx4CALBgusZbIiMAAP1GrljfkxoQAIBuC1d7Q/AmIKDWctXeEAQAoJQby0753D+SGhEAgEJ+jffpwUBqxh0AoMy8Nd6xcQIAFLlqjXdsBACgRlXt3b8jDeIRANBh5WpvCAIAaF+Uam8IAgBoVTXrj1PtDcEdANCiyRrvwyjV3hCcAICWhKzxjo0AAFpQR7U3BAEANK2mam8I7gCARhVDV1yvpdobghMA0Bw/66+r2huCAACa0dqsfx4CAGhAm7P+eQgAoGa+2htpjXdsBABQoyarvSGYAgA1abraG4ITAFAHJ4PN04NGq70hCAAgvpHrrjde7Q1BAABx1brGOzbuAIBo6l/jHRsBAEQyqfbuj8QQHgGACDRUe0MQAMCKtFR7Q/AIAKzAjd197bP+eQgAIFi1xvtgVwzjEQAI08oa79gIAGB5Kqu9IQgAYElaq70hCABgCc65Pa3V3hAEALCgSbX38FgSQgAAC7A865+HAACuomiNd2wEADDfyBXratZ4x0YAAJczVe0NwZuAwEz2qr0hCABgBjeWnfK5fySJIwCAF/g13qcHA8kAdwDABdrXeMfGCQCYsrDGOzYCAPCqau+++jXesfEIACRS7Q1BACB3yVR7QxAAyFg160+n2huCOwBka7LG+zCZam8ITgDIktU13rERAMhOqtXeEAQA8pJwtTcEdwDISDF0xfVkq70hOAEgF37Wn3K1NwQBgBxkPeufhwBA8nKf9c9DACBpvtqb0Brv2AgAJCu3am8IpgBIUo7V3hCcAJAeJ4PN04Psqr0hCACkZuS661lWe0MQAEhJ8mu8Y+MOAInIY413bAQAkjCp9u6PBEvhEQDmUe0NRwDANKq9q+ERAGa5sbvPrH81BACMqtZ4H+wKVsIjACzKdo13bAQArKHaGxEBAFOo9sZFAMAM59we1d64CACYMKn2Hh4LoiIAoB6z/voQANCNNd61IgCg2cgV66zxrhEBAK2o9jaANwGhENXephAAUMeNZad87h8JakcAQBW/xvv0YCBoBHcAUIM13s3jBAAVWOPdDgIAClTV3n3WeLeARwC0jWpviwgAtIlqb8sIALSkmvVT7W0bdwBoxWSN9yHV3pZxAkDjWOOtBwGARlHt1YUAQHOo9qrDHQAaUgxdcZ1qrzKcANAEP+un2qsPAYC6MetXjABArZj160YAoDa+2ssab9UIANSCaq8Na39+/o+XfvNWcV1e6VwTIATVXjuKL3xx2y3yha92b/l/vnIhHF6b/t6rnZvnX3P2e9U/z/4OMuJksPHoYFtgwsLvAZydFP4s/zsx/H6Bv3eruFaGwSs+NF4pf/762obcKn/+xtqm//Wr0z9DEkauu06115DaXwT6h/uP/OGjv53/+rf/+tNLX1OFxBvXNs8D4vXzn28SDnawxtughR8B2nIWDlUwvNq96U8OBIM2fo33W4z77FH/KnB1gvj9v//if1xUhcBrZSBUwfDm9U8QCi2aVHv3RwJz1J8AllFdOr5RBsLnr3/cnxSqYEC9aPfZllQZqLqorH5cvGeYnA42zv/5GpOJaPjw25fUCWAR1aPC69c25MvrnyIQVuDG7n45698VmJZdALzoYiC8ee0T3CMspBhuPNx/S2Be9vsAqhFl9eOX//yj/3X1qPCl9U/K7TIMqnEkXsIa74SwEOQFFycO1aViFQjV6aD6Aaq9qcn+EWAZVQh8qXpUKEMhx7sD13n+Fu2+tHACWEI1XTibMFQh8NWP9bIJA+fcHh/+9BAAgS4+KqQeBpNq7+GxIDkEQAQXw+DsMeFrNz4jKWDWnzbuAGpSdRi+/LFPy9emJwOTCjnZ+NkBN/4J4wRQk6rDUI0Wqx/VNKE6GXzr5mctPSKMXLHOGu/EcQJo2Nl9gfJHBMZ9mSAAWnL2jsF3bn1O2amAam9OCAAFNJ0K3Lj8L//p4UCQBQJAkepUUJ0I2hon+jXebPLNCgGg1FfL00CTjweM+/JEACh3Nj2oc5Q4WeN9cEeQHQLAiLPHg/j3BFR7c8Z3BjKi2nT0w78/kW//9VR+Ma0uR0C1N3OcAIyKcCJg1g8CwLqwIKhm/eNt2n0gABKxTBC4cbGzebp/IsgedwCJWPSOwI/7+PBjihNAomadCJj140UEQOLOg+DmZ6j24iU8AiRu+mgwpNqLWdgHkLjyeDd6XrgdvmsvZuEEkLDph397+HgwEmAGTgAJez52O8OnfPhxOU4AyXJ3yw8/L/pgLgIgRa74wfvvDej140o8AiSmfO7/ybMnvz4SYAEEQFLc4Nl7A3r9WBgBkAh/439DeNEHS+EOIAHn477BgFk/lkIAGOecfMisH6EIAOu6bo8PP0IRAJaV475nvxtQ7UUwAsCqatbPuA8rYgpgUPncf59ZP2LgBGDP8NmT/q4AERAAhlTjvo8Kp3vW339wW2AGAWCEiWpv/8FW+VT5gfQf/bH8eU+gHgFghK/26v7w98oP/4Ppr3qTIDh9R6AaAWBAUZSzfs3VXv/h7/bLn21c+N3y5+5Y+g9/VP75hkAlAkC7ctz39PHgWLTyH+7qw1/0Zn9BcWdyGuCRQCMCQDMTs/61e5d/+M/1eCTQiQBQyjl3ov7D33/0/fJ/317wq6ePBP7vQAkCQCF/439TdK/xnnyQj2R5R+Xf5ZFACQJAGRPV3slR/kjC3S4fCfrS/znvDLSMAFDERLXXf2hdjH2DPZHxBzwStIsAUKToWJj1P69m/THHekd+VIhWEABquLvvPx4MRKvzWX/Rk+jKUSH3Aq0gADQwsca7esuv6El9pvcChECTCICWVWu89Y/7/BG9iQu73uR9gYeLjhaxIgKgXcNn7/V1r/H2l3RFk/8fy/uF4gGXg80gAFpio9obPOuP4YgQqF/xhS9uO0GjTFR73y2P4d3igbTvROSjPdneYeV5DTgBNMzP+i1Ue7vFPdHhbS4H60MANK1rstrbNiYENSEAmqR9jfeV1d5W9QiB+AiAptio9j5Q+uE/05uMCekQxEIANMBGtdfP+rdEv/KUMu7zrkAcBED9hjaqvY3O+lc1eVfgNywYWRUBUKOzWb/uau+j70l7s/7VjFkwsioCoCY21nj7Z2nlHYQr8cLQCgiAmthY4/1cw4s+MRACgQiAWri7Nmb9RU/SQQgEIABi017t9bN+9eO+UITAkgiAiExUe+VaU9XethACSyAAonEDG9VetyvpIwQWRABE4Md9N4Rqry6EwAIIgBWZWOP9rn9r7kjyQwhcgQBYgY013qqqvW0gBOYgAFZRVXvVz/rVVXvbcMRrw7MRAKGo9tpSvTZMCLyEAAhho9rLh/9FY/djqsT/jwBYUvncf5813mZNq8SEwBkCYDnDZ0/6u6KZvWpv06oQeMBmoQkCYEFG1njbrfY2q8d6sQkCYAFUe5PU850If1maLwJgATaqveO+YFm3p92IbBEAVygK1ninze3m/O3JCYB5ynHf08eDY9GKWX8k/tuTZ/m2IAFwGRuz/nt8+KM5ynHTMAEwg4013v6/WKzGjqq4l9s7AgTAC/yNv4k13oz7apDdOwIEwAUmqr19/z77kaAuvZzGgwTAlI1qb3U8dcz661f+e+5mcSlIAEwVHTNrvBn3NaKcDPzqYfKvVBMAnrv7/uPBQLRKc423fp3iR+V9y5YkjADQvsbbS3aNtwX3Ur4UzDoATKzxptrbtl7Kl4I5B8DQxhpvqr0KJHspmGUAUO3F8tK8FMwuAExUeydrvBn3adMpvp/afUBWAeBn/RaqvXmv8dZsY7pIJJn7gLxOAF2qvVhZL6X7gHwCgDXeiCad+4A8AoBqL2JL5D4g+QCwUe31s36qvbZsTF7Qsi31ABjaqPYy6zfqtvV1YskGwNmsX3e1l1m/fX6d2JYYlWQAsMYbDbtndTSYZADYWOP93PzzI871Jpe49iQYAO6ujVl/0ROk5G2LS0XTCgDt1V5/TKTam67CXHU4mQAwUe2dfBcaqr3p2rD2KJBIALiBjWqv2xWkbsvSW4LmA8CP+26I9mova7xzYugtQdMBYGKN96TaeyTIiZlHAbMBYGONN9XejG1ZmArYPQFU1V71s36qvXkr1L8gZDMAqPbChg3tuwPsBYCNai8ffkzp7gqYCoDyuf8+a7xhkNp7IEsBMHz2pL8rmlHtxWw9+dXPjkQhEwHAGm+Y1+l8T+O7AeoDgGovEqHy3QD1AWCj2jvuC3C1LW0XgqoDoChY443kqHo3QG8AlOO+p48Hx6IVs36E6cm4o+aiWGcAsMYbKZtcCKo4BagLABtrvH27jzXeCLUx3Q3ROlUB4G/8TazxZtyHVbldDReCagLARLW3f/qO8OFHPK33BFQEgI1qbzXrd8z6EVPrY0EVAVB0zKzxZtyH2Fp9OUhBALi77z8eDEQr1nijXr02dwi2GwDa13h7rPFGzSY7BFs5XbYWACbWeFPtRTM22no5qK0AGNpY4021Fw1p6eWgxgOAai8wUyungEYDwES1d7LGm3EfmtfCKaCxAPCzfgvVXtZ4oz2NnwKaOwF0qfYCV2r4FNBMALDGG1hUo6eA+gOAai+wnAZPAbUGgI1qr5/1U+2FJo2dAuoMgKGNai+zfijU0CmglgA4m/XrrvYy64dqjZwCogcAa7yBSBo4BUQPABtrvH21F9Cu9lNA5ABwd23M+oueABZ0Ou9IjeIFgPZqrz9KUe2FOb06twZFCQAT1d7JFlaqvbCott2BEQLADWxUe92uADbVtjtwpQDw474bor3ayxpvpKCWU0BwAJhY4z2p9h4JYN9WHSPBoACwscabai8SU8NIMOwEUFV71c/6qfYiMTW8GLR8AFDtBdqyIePurkS0XADYqPby4Ue6OsU3JaKFA6B87r/PGm+gdVFHgosGwPDZk/6uaEa1F7kYj6Ptr7gyAFjjDShT9QMiXQbODQCqvYBK0S4D5waAjWrvuC9AbiJdBl4aAEXBGm9AsSiXgbMDoBz3PX08OBatmPUDUS4DXw4A1ngDNkRYFvJ/AWBjjbdv97HGG6gef1d8DDgPAH/jb2KNN+M+4IKVasI+AExUe/un1XHnSABcdHuVdwI6Nqq91azfMesHXrbSOwGdomNmjTfjPmCWFd4JKEQz1ngDC/poU7Z3ln6Eb+bbgwdjjTewkMDHAL0BQLUXWFzgY4DORwDGfUCA5R8D9J0AqPYCYQIeA3QFQP/BllDtBcIEPAboeQTwN/5rHwjjPmAFyz0G6DgBUO0F4ljyMaD9AKDaC8Sz5GOAghMA1V4goqW6Ae0GANVeILbyw7+28Psz7QUAs36gHktsCmonAJj1A/VZYlNQ82NAX+0dfyAA6rQt218fXPVFzZ4A/lftBVCnsVvoHqC5AKDaCzRnwXFgM48AfixRfdde2n1Ac65+K7ChE8A1qr1A464eB9YfAH7c53YFQLMWGAfWGwDM+oH2dDpfuepL6rsDePfh29ItuPEHWjX/HqCeE0B1498t7gmAdo27cx8D4gcA1V5AkfnvA8QNAKq9gC5X3ANEPgGs8eEHdJlbD44XAKzxBnTqXn4KiBMAftxX3BEA+vxHti/7o9UDgGovoFun8+alfySr8NVe1ngDyl36aB4eAH7cN+4LAO02ys/rzBAICwBm/YAt4+7WrN9ePgCY9QP2XHIPsCZLq5KkMxAAhoxn9gH+C1ZOngW7qqjRAAAAAElFTkSuQmCC;" parent="1" vertex="1">
          <mxGeometry x="5405" y="3906.25" width="37.46" height="48" as="geometry" />
        </mxCell>
        <mxCell id="DYVR5GmqD2k4Z60yoU10-6" style="edgeStyle=orthogonalEdgeStyle;rounded=0;orthogonalLoop=1;jettySize=auto;html=1;exitX=1;exitY=0.5;exitDx=0;exitDy=0;entryX=0;entryY=0.5;entryDx=0;entryDy=0;" edge="1" parent="1" source="DYVR5GmqD2k4Z60yoU10-4" target="eyDwSRysMj3kFaCQzoZv-405">
          <mxGeometry relative="1" as="geometry" />
        </mxCell>
        <mxCell id="DYVR5GmqD2k4Z60yoU10-4" value="My Data Pipeline App" style="rounded=1;whiteSpace=wrap;html=1;" vertex="1" parent="1">
          <mxGeometry x="5157.7" y="3907.75" width="80" height="45" as="geometry" />
        </mxCell>
        <mxCell id="DYVR5GmqD2k4Z60yoU10-11" value="" style="endArrow=classic;startArrow=classic;html=1;rounded=0;exitX=1;exitY=0.5;exitDx=0;exitDy=0;entryX=0;entryY=0.5;entryDx=0;entryDy=0;" edge="1" parent="1" source="eyDwSRysMj3kFaCQzoZv-402" target="DYVR5GmqD2k4Z60yoU10-4">
          <mxGeometry width="50" height="50" relative="1" as="geometry">
            <mxPoint x="5080" y="3800" as="sourcePoint" />
            <mxPoint x="5130" y="3750" as="targetPoint" />
          </mxGeometry>
        </mxCell>
        <mxCell id="DYVR5GmqD2k4Z60yoU10-12" value="" style="endArrow=classic;startArrow=classic;html=1;rounded=0;exitX=0.5;exitY=0;exitDx=0;exitDy=0;entryX=0.5;entryY=0;entryDx=0;entryDy=0;" edge="1" parent="1" source="eyDwSRysMj3kFaCQzoZv-402" target="DYVR5GmqD2k4Z60yoU10-4">
          <mxGeometry width="50" height="50" relative="1" as="geometry">
            <mxPoint x="5107.5" y="3940.249999999999" as="sourcePoint" />
            <mxPoint x="5152.7" y="3940.25" as="targetPoint" />
            <Array as="points">
              <mxPoint x="5080" y="3840" />
              <mxPoint x="5183" y="3840" />
              <mxPoint x="5198" y="3840" />
            </Array>
          </mxGeometry>
        </mxCell>
      </root>
    </mxGraphModel>
  </diagram>
</mxfile>
